<?xml version="1.0" encoding="UTF-8" standalone="no"?>
<svg width="24px" height="24px" viewBox="0 0 24 24" version="1.1" xmlns="http://www.w3.org/2000/svg" xmlns:xlink="http://www.w3.org/1999/xlink" xmlns:sketch="http://www.bohemiancoding.com/sketch/ns">
    <!-- Generator: Sketch 3.2.2 (9983) - http://www.bohemiancoding.com/sketch -->
    <title>ic-bixi-24px</title>
    <desc>Created with Sketch.</desc>
    <defs></defs>
    <g id="Assets" stroke="none" stroke-width="1" fill="none" fill-rule="evenodd">
        <g transform="translate(-208.000000, -150.000000)" id="Bixi">
            <g transform="translate(208.000000, 150.000000)">
                <rect id="Grid" x="0" y="0" width="24" height="24"></rect>
                <path d="M14.1120671,14.83599 C14.2953756,14.83599 14.4592698,14.75364 14.5703385,14.62494 L14.5730475,14.62089 L15.3911637,13.57959 C15.4304441,13.52109 15.4534705,13.45134 15.4534705,13.37619 C15.4534705,13.17594 15.2891249,13.01079 15.0895623,13.00674 L15.0584089,13.00674 C15.0480244,13.00584 15.0362855,13.00674 15.025901,13.00674 L15.025901,13.00719 L11.4297116,13.00674 L10.0034264,14.83329 L12.8460639,14.83329 L14.1120671,14.83599 Z M10.0005368,10.9569 L15.6293745,3.7767 C14.5096571,3.2808 13.2739044,3 11.9699753,3 C7.33759582,3 3.52513846,6.4785 3.00546314,10.9569 L10.0005368,10.9569 Z M17.6777802,5.02824 L13.0336618,10.95744 C13.0336618,10.95744 17.4457098,10.95699 17.4506762,10.95699 C17.4560942,10.95699 17.4615122,10.95699 17.4655757,10.95744 C18.1184432,10.96509 18.5216318,11.38359 18.7040374,11.71389 C19.0435646,12.32949 18.7473813,12.97434 18.5992896,13.17234 C18.5992896,13.17234 16.5946342,15.73869 16.5937312,15.74004 C16.0898583,16.38669 15.1602219,16.90689 14.5064514,16.91544 C14.5014849,16.91544 8.87671068,16.91589 7.88567043,16.91589 C7.59309909,16.94334 7.28924028,16.86369 7.03910984,16.66839 C6.51898302,16.26384 6.42687723,15.51549 6.83277481,14.99754 L8.39541277,13.00629 L3,13.00629 C3.50251836,17.50269 7.3244572,21.00009 11.9699302,21.00009 C16.9567364,21.00009 20.9999097,16.97079 20.9999097,12.00009 C20.9999097,9.18804 19.7045591,6.67884 17.6777802,5.02824 Z" fill="#212121"></path>
            </g>
        </g>
    </g>
</svg>