<?xml version="1.0" encoding="UTF-8" standalone="no"?>
<svg width="24px" height="24px" viewBox="0 0 24 24" version="1.1" xmlns="http://www.w3.org/2000/svg" xmlns:xlink="http://www.w3.org/1999/xlink" xmlns:sketch="http://www.bohemiancoding.com/sketch/ns">
    <!-- Generator: Sketch 3.2.2 (9983) - http://www.bohemiancoding.com/sketch -->
    <title>ic-bike-share-24px</title>
    <desc>Created with Sketch.</desc>
    <defs></defs>
    <g id="Assets" stroke="none" stroke-width="1" fill="none" fill-rule="evenodd">
        <g transform="translate(-238.000000, -121.000000)" id="Bike---Share">
            <g transform="translate(238.000000, 121.000000)">
                <rect id="Grid" x="0" y="0" width="24" height="24"></rect>
                <g transform="translate(1.000000, 2.000000)" fill="#212121">
                    <path d="M15.437,3.2295 C15.034,3.2295 14.708,2.9035 14.708,2.5 C14.708,2.098 15.034,1.771 15.437,1.771 C15.8405,1.771 16.167,2.098 16.167,2.5 C16.167,2.9035 15.8405,3.2295 15.437,3.2295 M14.5005,0 C13.5755,0 12.77,0.504 12.338,1.25 L5.333,1.25 L4.5,2.0835 L4.5,2.5 L5.75,3.75 L6.583,3.75 L7.2665,2.917 L7.961,2.917 L8.667,3.75 L9.3605,3.75 L10.0555,2.917 L10.75,2.917 L11.4445,3.75 L12.337,3.75 C12.7695,4.4965 13.575,5 14.5005,5 C15.881,5 17,3.8815 17,2.501 C17,1.12 15.881,0 14.5005,0" id="Key"></path>
                    <path d="M17.75,18.9375 C15.989,18.9375 14.5625,17.511 14.5625,15.7495 C14.5625,13.9895 15.989,12.563 17.75,12.563 C19.5105,12.563 20.9375,13.9895 20.9375,15.7495 C20.9375,17.511 19.5105,18.9375 17.75,18.9375 M17.75,11.5 C15.403,11.5 13.5,13.403 13.5,15.7495 C13.5,18.0965 15.403,20 17.75,20 C20.0965,20 22,18.0965 22,15.7495 C22,13.403 20.0965,11.5 17.75,11.5" id="Wheel"></path>
                    <path d="M4.25,18.9375 C2.489,18.9375 1.0625,17.511 1.0625,15.7495 C1.0625,13.9895 2.489,12.563 4.25,12.563 C6.0105,12.563 7.4375,13.9895 7.4375,15.7495 C7.4375,17.511 6.0105,18.9375 4.25,18.9375 M4.25,11.5 C1.903,11.5 0,13.403 0,15.7495 C0,18.0965 1.903,20 4.25,20 C6.5965,20 8.5,18.0965 8.5,15.7495 C8.5,13.403 6.5965,11.5 4.25,11.5" id="Wheel2"></path>
                    <path d="M10.69045,14.5 L8.99995,9.5 L8.77395,8.8465 L9.57645,8.8465 C9.81045,8.8465 9.99995,8.657 9.99995,8.4235 C9.99995,8.1895 9.81045,8 9.57645,8 L6.92295,8 C6.68895,8 6.49995,8.1895 6.49995,8.4235 C6.49995,8.657 6.68895,8.8465 6.92295,8.8465 L7.76895,8.8465 L8.08195,9.906 L4.06945,14.992 C3.92495,15.176 3.80745,15.419 3.80745,15.536 L3.80745,16.0765 C3.80745,16.3105 3.99695,16.5 4.23045,16.5 L10.15395,16.5 C10.38795,16.5 10.69245,16.3495 10.83495,16.1645 L14.71895,10.617 L16.92295,15.769 L17.15695,16.237 C17.26145,16.446 17.51545,16.531 17.72445,16.427 L17.81395,16.3815 C18.02295,16.2775 18.10745,16.023 18.00295,15.814 L17.76895,15.346 L14.29495,7.278 C14.11095,6.848 13.58245,6.5 13.11545,6.5 L12.42195,6.5 C12.18795,6.5 11.99895,6.6895 11.99895,6.9235 C11.99895,7.157 12.18795,7.346 12.42195,7.346 L12.87345,7.346 C13.10695,7.346 13.37145,7.5205 13.46345,7.7355 L14.26545,9.5 L10.69045,14.5 Z M4.98595,15.5 L8.44695,10.9415 L9.99495,15.5 L4.98595,15.5 Z" id="Frame"></path>
                </g>
            </g>
        </g>
    </g>
</svg>