<?xml version="1.0" encoding="UTF-8" standalone="no"?>
<svg width="24px" height="24px" viewBox="0 0 24 24" version="1.1" xmlns="http://www.w3.org/2000/svg" xmlns:xlink="http://www.w3.org/1999/xlink" xmlns:sketch="http://www.bohemiancoding.com/sketch/ns">
    <!-- Generator: Sketch 3.2.2 (9983) - http://www.bohemiancoding.com/sketch -->
    <title>ic-bCycle-24px</title>
    <desc>Created with Sketch.</desc>
    <defs></defs>
    <g id="Assets" stroke="none" stroke-width="1" fill="none" fill-rule="evenodd">
        <g transform="translate(-122.000000, -179.000000)" id="B-Cycle">
            <g transform="translate(122.000000, 179.000000)">
                <rect id="Grid" x="0" y="0" width="24" height="24"></rect>
                <path d="M12,19.50015 C7.85775,19.50015 4.49985,16.1418 4.49985,12 C4.49985,7.85775 7.85775,4.49985 12,4.49985 C16.14225,4.49985 19.50015,7.85775 19.50015,12 C19.50015,16.1418 16.14225,19.50015 12,19.50015 M12,3 C7.0293,3 3,7.0293 3,12 C3,16.9707 7.0293,21 12,21 C16.9707,21 21,16.9707 21,12 C21,7.0293 16.9707,3 12,3 Z M12.744255,7.71582 C13.151955,7.71582 13.524105,7.75182 13.859805,7.82382 C14.196405,7.89582 14.483955,8.01462 14.724255,8.17797 C14.964105,8.34222 15.149955,8.56047 15.282255,8.83182 C15.414105,9.10407 15.480255,9.43977 15.480255,9.83982 C15.480255,10.27182 15.382155,10.63182 15.185955,10.92027 C14.990205,11.20782 14.699955,11.44407 14.316555,11.62812 C14.843955,11.77977 15.237705,12.04572 15.498255,12.42597 C15.757905,12.80577 15.887955,13.26432 15.887955,13.79937 C15.887955,14.23182 15.804255,14.60577 15.635955,14.92212 C15.468105,15.23847 15.242205,15.49587 14.957805,15.69567 C14.673855,15.89592 14.349855,16.04442 13.985805,16.14027 C13.622205,16.23567 13.248255,16.28427 12.863955,16.28427 L8.711805,16.28427 L8.711805,7.71582 L12.744255,7.71582 Z M12.611955,14.81997 C12.796005,14.81997 12.971955,14.80152 13.139805,14.76597 C13.308105,14.73042 13.456155,14.66967 13.583955,14.58552 C13.711755,14.50182 13.813905,14.38842 13.889955,14.24352 C13.966005,14.09907 14.004255,13.91547 14.004255,13.69182 C14.004255,13.25217 13.880055,12.93762 13.632105,12.74907 C13.383705,12.56187 13.056105,12.46737 12.647955,12.46737 L10.596405,12.46737 L10.596405,14.81997 L12.611955,14.81997 Z M12.504405,11.18397 C12.839655,11.18397 13.116405,11.10387 13.331955,10.94412 C13.547955,10.78392 13.656405,10.52382 13.656405,10.16427 C13.656405,9.96402 13.619955,9.80022 13.547955,9.67242 C13.475955,9.54372 13.380555,9.44382 13.259955,9.37182 C13.139805,9.29937 13.002105,9.25032 12.846405,9.22152 C12.689805,9.19407 12.528255,9.18012 12.359955,9.18012 L10.596405,9.18012 L10.596405,11.18397 L12.504405,11.18397 Z" fill="#212121"></path>
            </g>
        </g>
    </g>
</svg>