<?xml version="1.0" encoding="UTF-8" standalone="no"?>
<svg width="24px" height="24px" viewBox="0 0 24 24" version="1.1" xmlns="http://www.w3.org/2000/svg" xmlns:xlink="http://www.w3.org/1999/xlink" xmlns:sketch="http://www.bohemiancoding.com/sketch/ns">
    <!-- Generator: Sketch 3.2.2 (9983) - http://www.bohemiancoding.com/sketch -->
    <title>ic-bus-realtime-24px</title>
    <desc>Created with Sketch.</desc>
    <defs></defs>
    <g id="Assets" stroke="none" stroke-width="1" fill="none" fill-rule="evenodd">
        <g transform="translate(-63.000000, -92.000000)" id="Bus---Realtime">
            <g transform="translate(63.000000, 92.000000)">
                <rect id="Grid" x="0" y="0" width="24" height="24"></rect>
                <path d="M18.0500031,17.6735572 C17.3565031,17.6735572 16.8000031,17.1189884 16.8000031,16.43629 C16.8000031,15.7550757 17.3565031,15.2000122 18.0500031,15.2000122 C18.7395031,15.2000122 19.3000031,15.7550757 19.3000031,16.43629 C19.3000031,17.1189884 18.7395031,17.6735572 18.0500031,17.6735572 L18.0500031,17.6735572 Z M6.05000305,17.6735572 C5.35650305,17.6735572 4.80000305,17.1189884 4.80000305,16.43629 C4.80000305,15.7550757 5.35650305,15.2000122 6.05000305,15.2000122 C6.73950305,15.2000122 7.30000305,15.7550757 7.30000305,16.43629 C7.30000305,17.1189884 6.73950305,17.6735572 6.05000305,17.6735572 L6.05000305,17.6735572 Z M8.57142857,2.5 L15.4285714,2.5 C15.4285714,2.5 16,2.5 16,3.02380952 C16,3.54761905 15.4285714,3.54761905 15.4285714,3.54761905 L8.57142857,3.54761905 C8.57142857,3.54761905 8,3.54761905 8,3.02380952 C8,2.5 8.57142857,2.5 8.57142857,2.5 L8.57142857,2.5 Z M11.9978824,1 C7.38617647,1 3.77029412,2.31580952 3.39917647,4.95214286 C3,7.80009524 3,11.3269048 3,11.3269048 L3,18.5090418 C3,19.3324753 3.67977905,20 4.5,20 L4.5,20 L4.5,21.5 C4.5,21.5 4.5,23 6,23 C7.5,23 7.5,21.5 7.5,21.5 L7.5,20 L16.5,20 L16.5,21.5 C16.5,21.5 16.5,23 18,23 C19.5,23 19.5,21.5 19.5,21.5 L19.5,20 L19.5,20 C20.3284271,20 21,19.3296538 21,18.499677 L21,11.2724286 C21,11.2724286 21,8.00490476 20.5595294,4.95214286 C20.1778235,2.31790476 16.6355294,1 11.9978824,1 Z M12.9695,12.9999999 L18.0069035,13 C18.836114,13 19.4578939,12.3263055 19.4059537,11.4952612 L19.0940461,6.50473882 C19.0417696,5.66831554 18.3292127,5.00000001 17.5017547,5.00000001 L6.49824523,5.00000001 C5.67524909,5.00000001 4.95789409,5.67369449 4.90595382,6.50473876 L4.59404617,11.4952609 C4.54176971,12.3316842 5.16848199,12.9999997 5.99309633,12.9999997 L10.9695,12.9999998 C10.9695001,12.4479999 11.4175001,12 11.9695,12 C12.5214999,12 12.9694999,12.4479999 12.9695,12.9999998 L12.9695,12.9999999 Z M11.9695,6 C9.754,6 7.7825,7.032 6.5,8.638 L7.6255,9.6385 C8.6325,8.3405 10.203,7.5 11.9695,7.5 C13.736,7.5 15.3065,8.3405 16.3135,9.6385 L17.439,8.638 C16.1565,7.032 14.185,6 11.9695,6 Z M11.9695,9 C10.646,9 9.476,9.6455 8.748,10.636 L9.877,11.64 C10.3235,10.9555 11.093,10.5 11.9695,10.5 C12.846,10.5 13.6155,10.9555 14.062,11.64 L15.191,10.636 C14.463,9.6455 13.293,9 11.9695,9 Z" fill="#212121"></path>
            </g>
        </g>
    </g>
</svg>