<?xml version="1.0" encoding="UTF-8" standalone="no"?>
<svg width="24px" height="24px" viewBox="0 0 24 24" version="1.1" xmlns="http://www.w3.org/2000/svg" xmlns:xlink="http://www.w3.org/1999/xlink" xmlns:sketch="http://www.bohemiancoding.com/sketch/ns">
    <!-- Generator: Sketch 3.2.2 (9983) - http://www.bohemiancoding.com/sketch -->
    <title>ic-bayAreaBikeShare-24px</title>
    <desc>Created with Sketch.</desc>
    <defs></defs>
    <g id="Assets" stroke="none" stroke-width="1" fill="none" fill-rule="evenodd">
        <g transform="translate(-5.000000, -179.000000)" id="Bay-Area-Bike-Share">
            <g transform="translate(5.000000, 179.000000)">
                <rect id="Grid" x="0" y="0" width="24" height="24"></rect>
                <path d="M12,17.5297679 C9.01785,17.5297679 6.6,15.0537628 6.6,11.9998848 C6.6,8.94692848 9.01785,6.47000166 12,6.47000166 C14.98215,6.47000166 17.4,8.94692848 17.4,11.9998848 C17.4,15.0537628 14.98215,17.5297679 12,17.5297679 M20.95815,11.1127994 C19.9929,11.3197092 19.011,10.753357 18.6987,9.77088107 C18.38685,8.78886599 18.8571,7.7381882 19.7571,7.32482943 C19.46235,6.81331524 19.1208,6.33267623 18.73785,5.89074641 C18.0759,6.6386631 16.95585,6.77184112 16.14,6.16447562 C15.3237,5.55711012 15.10095,4.42440573 15.59235,3.54791925 C15.0672,3.31289922 14.5164,3.12903061 13.94445,3 C13.83915,4.00413461 13.00935,4.78753472 12,4.78753472 C10.99065,4.78753472 10.16085,4.00413461 10.05555,3 C9.4836,3.12903061 8.9328,3.31289922 8.40765,3.54791925 C8.89905,4.42440573 8.67675,5.55711012 7.86,6.16447562 C7.04415,6.77138029 5.9241,6.6386631 5.26215,5.89074641 C4.8792,6.33267623 4.53765,6.81331524 4.2429,7.32482943 C5.1429,7.7381882 5.61315,8.78794434 5.3013,9.77088107 C4.98945,10.753357 4.0071,11.3197092 3.04185,11.1127994 C3.0144,11.4049615 3,11.7008103 3,11.9998848 C3,12.2989593 3.0144,12.5957297 3.04185,12.8869702 C4.0071,12.6795996 4.98945,13.2459518 5.3013,14.2288885 C5.61315,15.2113644 5.1429,16.2615814 4.2429,16.675401 C4.53765,17.1869152 4.8792,17.6670934 5.26215,18.109484 C5.9241,17.3611065 7.04415,17.2279285 7.86045,17.835294 C8.6763,18.4426595 8.89905,19.5758247 8.40765,20.4523112 C8.9328,20.6868704 9.4836,20.8716606 10.05555,20.9997696 C10.1604,19.9951742 10.9911,19.2122349 12,19.2122349 C13.0089,19.2122349 13.8396,19.995635 13.94445,20.9997696 C14.5164,20.8716606 15.06765,20.6868704 15.5928,20.4518503 C15.10095,19.5758247 15.3237,18.4426595 16.14045,17.835294 C16.95585,17.2279285 18.0759,17.3611065 18.73785,18.109484 C19.1208,17.6670934 19.46235,17.1869152 19.75755,16.6744793 C18.8571,16.2615814 18.38685,15.2113644 18.6987,14.2288885 C19.01055,13.2464126 19.9929,12.6800604 20.95815,12.8869702 C20.9856,12.5948081 21,12.2989593 21,11.9998848 C21,11.7008103 20.9856,11.4049615 20.95815,11.1127994" fill="#212121"></path>
            </g>
        </g>
    </g>
</svg>