<?xml version="1.0" encoding="UTF-8" standalone="no"?>
<svg width="24px" height="24px" viewBox="0 0 24 24" version="1.1" xmlns="http://www.w3.org/2000/svg" xmlns:xlink="http://www.w3.org/1999/xlink" xmlns:sketch="http://www.bohemiancoding.com/sketch/ns">
    <!-- Generator: Sketch 3.2.2 (9983) - http://www.bohemiancoding.com/sketch -->
    <title>ic-bus-24px</title>
    <desc>Created with Sketch.</desc>
    <defs></defs>
    <g id="Assets" stroke="none" stroke-width="1" fill="none" fill-rule="evenodd">
        <g transform="translate(-34.000000, -92.000000)" id="Bus">
            <g transform="translate(34.000000, 92.000000)">
                <rect id="Grid" x="0" y="0" width="24" height="24"></rect>
                <path d="M18.0500031,17.6735572 C17.3565031,17.6735572 16.8000031,17.1189884 16.8000031,16.43629 C16.8000031,15.7550757 17.3565031,15.2000122 18.0500031,15.2000122 C18.7395031,15.2000122 19.3000031,15.7550757 19.3000031,16.43629 C19.3000031,17.1189884 18.7395031,17.6735572 18.0500031,17.6735572 L18.0500031,17.6735572 Z M6.05000305,17.6735572 C5.35650305,17.6735572 4.80000305,17.1189884 4.80000305,16.43629 C4.80000305,15.7550757 5.35650305,15.2000122 6.05000305,15.2000122 C6.73950305,15.2000122 7.30000305,15.7550757 7.30000305,16.43629 C7.30000305,17.1189884 6.73950305,17.6735572 6.05000305,17.6735572 L6.05000305,17.6735572 Z M8.57142857,2.5 L15.4285714,2.5 C15.4285714,2.5 16,2.5 16,3.02380952 C16,3.54761905 15.4285714,3.54761905 15.4285714,3.54761905 L8.57142857,3.54761905 C8.57142857,3.54761905 8,3.54761905 8,3.02380952 C8,2.5 8.57142857,2.5 8.57142857,2.5 L8.57142857,2.5 Z M11.9978824,1 C7.38617647,1 3.77029412,2.31580952 3.39917647,4.95214286 C3,7.80009524 3,11.3269048 3,11.3269048 L3,18.5090418 C3,19.3324753 3.67977905,20 4.5,20 L4.5,20 L4.5,21.5 C4.5,21.5 4.5,23 6,23 C7.5,23 7.5,21.5 7.5,21.5 L7.5,20 L16.5,20 L16.5,21.5 C16.5,21.5 16.5,23 18,23 C19.5,23 19.5,21.5 19.5,21.5 L19.5,20 L19.5,20 C20.3284271,20 21,19.3296538 21,18.499677 L21,11.2724286 C21,11.2724286 21,8.00490476 20.5595294,4.95214286 C20.1778235,2.31790476 16.6355294,1 11.9978824,1 Z M5.99309633,12.9999997 C5.16848199,12.9999997 4.54176971,12.3316842 4.59404617,11.4952609 L4.90595382,6.50473876 C4.95789409,5.67369449 5.67524909,5.00000001 6.49824523,5.00000001 L17.5017547,5.00000001 C18.3292127,5.00000001 19.0417696,5.66831554 19.0940461,6.50473882 L19.4059537,11.4952612 C19.4578939,12.3263055 18.836114,13 18.0069035,13 L5.99309633,12.9999997 Z" fill="#212121"></path>
            </g>
        </g>
    </g>
</svg>