<?xml version="1.0" encoding="UTF-8" standalone="no"?>
<svg width="24px" height="24px" viewBox="0 0 24 24" version="1.1" xmlns="http://www.w3.org/2000/svg" xmlns:xlink="http://www.w3.org/1999/xlink" xmlns:sketch="http://www.bohemiancoding.com/sketch/ns">
    <!-- Generator: Sketch 3.2.2 (9983) - http://www.bohemiancoding.com/sketch -->
    <title>ic-cableCar-realtime-24px</title>
    <desc>Created with Sketch.</desc>
    <defs></defs>
    <g id="Assets" stroke="none" stroke-width="1" fill="none" fill-rule="evenodd">
        <g transform="translate(-122.000000, -121.000000)" id="Cable-Car---Realtime">
            <g transform="translate(122.000000, 121.000000)">
                <rect id="Grid" x="0" y="0" width="24" height="24"></rect>
                <path d="M17,3 C17,3 15.75,2 12,2 C8.25,2 7,3 7,3 L7,4 C2.5985,4.272 2,5 2,5 L2,6 L4,6 L4,19.0015 C4,20.107 4.8965,20.9995 6,20.9995 L7,21 L7,22 L5.001,22 C5.001,22.552 5.448,22.9995 6,22.9995 L18,23 C18.5525,23 18.999,22.552 18.999,22 L17,22 L17,21 L18.001,21 C19.1065,21 19.999,20.1035 19.999,19 L20,6 L22,6 L22,5 C22,5 21.4015,4.272 17,4 L17,3 Z M12,18.5 C11.4475,18.5 11,18.0525 11,17.5 C11,16.9475 11.4475,16.5 12,16.5 C12.5525,16.5 13,16.9475 13,17.5 C13,18.0525 12.5525,18.5 12,18.5 L12,18.5 Z M6,14 L5,14 L5,6 L6,6 L6,14 Z M19,14 L18,14 L18,6 L19,6 L19,14 Z M12.8166403,14 L17,14 L17,6 L7,6 L7,14 L11.1833597,14 C11.1724135,13.9461435 11.1666667,13.8904055 11.1666667,13.8333333 C11.1666667,13.3733333 11.54,13 12,13 C12.46,13 12.8333333,13.3733333 12.8333333,13.8333333 C12.8333333,13.8904055 12.8275865,13.9461435 12.8166403,14 L12.8166403,14 Z M12,8 C10.15375,8 8.51083333,8.86 7.44208333,10.1983333 L8.38,11.0320833 C9.21916667,9.95041667 10.5279167,9.25 12,9.25 C13.4720833,9.25 14.7808333,9.95041667 15.62,11.0320833 L16.5579167,10.1983333 C15.4891667,8.86 13.84625,8 12,8 Z M12,10.5 C10.8970833,10.5 9.92208333,11.0379167 9.31541667,11.8633333 L10.25625,12.7 C10.6283333,12.1295833 11.2695833,11.75 12,11.75 C12.7304167,11.75 13.3716667,12.1295833 13.74375,12.7 L14.6845833,11.8633333 C14.0779167,11.0379167 13.1029167,10.5 12,10.5 Z" fill="#212121"></path>
            </g>
        </g>
    </g>
</svg>