<?xml version="1.0" encoding="UTF-8" standalone="no"?>
<svg width="24px" height="24px" viewBox="0 0 24 24" version="1.1" xmlns="http://www.w3.org/2000/svg" xmlns:xlink="http://www.w3.org/1999/xlink" xmlns:sketch="http://www.bohemiancoding.com/sketch/ns">
    <!-- Generator: Sketch 3.2.2 (9983) - http://www.bohemiancoding.com/sketch -->
    <title>ic-citiBike-24px</title>
    <desc>Created with Sketch.</desc>
    <defs></defs>
    <g id="Assets" stroke="none" stroke-width="1" fill="none" fill-rule="evenodd">
        <g transform="translate(-179.000000, -179.000000)" id="Citi-Bike">
            <g transform="translate(179.000000, 179.000000)">
                <rect id="Grid" x="0" y="0" width="24" height="24"></rect>
                <path d="M20.928879,8.42612762 C19.5250708,6.27968985 17.1920371,5 14.8184579,5 C12.4455433,5 10.1131743,6.27968985 8.71069543,8.42612762 L8.63957446,8.53581532 L10.4076284,8.53581532 L10.4262395,8.51359102 C11.6306432,7.17368047 13.2019514,6.46608725 14.8184579,6.46608725 C16.4356291,6.46608725 18.0062725,7.17368047 19.2120056,8.51359102 L19.231946,8.53581532 L21,8.53581532 L20.928879,8.42612762 Z M9.48305586,9.75915581 L11.0198005,9.75915581 L11.0198005,17.8466523 L9.48305586,17.8466523 L9.48305586,9.75915581 Z M17.035571,16.0874193 C16.6274563,16.3576955 16.2445995,16.4924752 15.9022883,16.4924752 C15.4057708,16.4924752 15.181773,16.2114452 15.181773,15.5805617 L15.181773,11.2905538 L16.7464343,11.2905538 L16.7464343,9.76711354 L15.181773,9.76711354 L15.181773,7.25074862 L13.6762684,8.11893037 L13.6762684,9.76711354 L12.3781446,9.76711354 L12.3781446,11.2905538 L13.6762684,11.2905538 L13.6762684,15.8551394 C13.6762684,17.0989836 14.3595614,17.9485256 15.3791836,17.9707499 C16.0711175,17.9843713 16.4885377,17.7621282 16.7431109,17.599389 L16.7577339,17.5879184 L17.1272971,16.0286324 L17.035571,16.0874193 Z M18.3087028,9.75915581 L19.8461121,9.75915581 L19.8461121,17.8466523 L18.3087028,17.8466523 L18.3087028,9.75915581 Z M7.73554054,15.467863 L7.70230645,15.5037086 C7.15926129,16.1001803 6.53047217,16.416339 5.88174259,16.416339 C4.5297795,16.416339 3.54937362,15.3216127 3.54937362,13.8125107 C3.54937362,12.3062763 4.5297795,11.2108331 5.88174259,11.2108331 C6.53047217,11.2108331 7.15926129,11.5284256 7.70230645,12.1263311 L7.73554054,12.1636106 L8.60494453,11.0287372 L8.58234535,10.9986268 C7.8585067,10.0759597 6.99109676,9.62788902 5.92428223,9.62788902 C4.85480897,9.62788902 3.87573246,10.0171728 3.17050491,10.7190307 C2.40479131,11.4768079 2,12.5457253 2,13.8125107 C2,15.0785792 2.40479131,16.1510812 3.17050491,16.911009 C3.87573246,17.6143008 4.85480897,18 5.92428223,18 C6.99109676,18 7.8585067,17.5533631 8.58234535,16.6321298 L8.60494453,16.6027364 L7.73554054,15.467863 Z" id="Citibike" fill="#212121" ></path>
            </g>
        </g>
    </g>
</svg>