<?xml version="1.0" encoding="UTF-8" standalone="no"?>
<svg width="24px" height="24px" viewBox="0 0 24 24" version="1.1" xmlns="http://www.w3.org/2000/svg" xmlns:xlink="http://www.w3.org/1999/xlink" xmlns:sketch="http://www.bohemiancoding.com/sketch/ns">
    <!-- Generator: Sketch 3.2.2 (9983) - http://www.bohemiancoding.com/sketch -->
    <title>ic-car2Go-24px</title>
    <desc>Created with Sketch.</desc>
    <defs></defs>
    <g id="Assets" stroke="none" stroke-width="1" fill="none" fill-rule="evenodd">
        <g transform="translate(-63.000000, -179.000000)" id="Car-2-Go">
            <g transform="translate(63.000000, 179.000000)">
                <path d="M2.15949841,4.00004895 C1.0699093,4.00004895 0,5.09103479 0,6.20257757 L0,9.16277604 C0,10.2738294 1.0699093,11.3648152 2.15949841,11.3648152 L7.22248778,11.3648152 L7.22248778,9.92142479 L2.15949841,9.92142479 C1.44430556,9.92142479 1.41646584,9.23961982 1.41598584,9.16228659 L1.41598584,6.20257757 C1.41646584,6.12573379 1.44430556,5.44343937 2.15949841,5.44343937 L7.22248778,5.44343937 L7.22248778,4.00004895 L2.15949841,4.00004895 Z M2.15949841,12.6362126 C0.451675483,12.6362126 0,14.0761769 0,14.8377624 L0,15.065357 L1.41358586,15.065357 L1.41598584,14.8382518 C1.41646584,14.7609186 1.44430556,14.0781347 2.15949841,14.0781347 L5.09322907,14.0781347 C5.68362316,14.0781347 5.80746193,14.4917206 5.80746193,14.8377624 C5.80746193,15.3482595 5.56410436,15.5969006 5.06298937,15.5969006 L2.1897381,15.5969006 C1.06462935,15.5969006 0,16.6893548 0,17.8449481 L0,20 L7.22248778,20 L7.22248778,18.5575885 L1.41598584,18.5575885 L1.41598584,17.8449481 C1.41646584,17.7632098 1.44334557,17.0393121 2.15949841,17.0393121 L5.06298937,17.0393121 C6.17321827,17.0393121 7.22248778,15.9693726 7.22248778,14.8377624 C7.22248778,13.6645488 6.2202578,12.6362126 5.07882921,12.6362126 L2.15949841,12.6362126 Z M14.195954,7.94771442 L9.80495795,7.94771442 L9.80495795,6.2028223 C9.80495795,5.81860341 10.1731143,5.4436841 10.5484705,5.4436841 L13.4519615,5.4436841 C13.8417176,5.4436841 14.195954,5.80587769 14.195954,6.2028223 L14.195954,7.94771442 Z M13.4519615,4.00029367 L10.5484705,4.00029367 C9.45840142,4.00029367 8.38897211,5.09079007 8.38897211,6.2028223 L8.38897211,11.3645705 L9.80495795,11.3645705 L9.80495795,9.39159429 L14.195954,9.39159429 L14.195954,11.3645705 L15.6114599,11.3645705 L15.6114599,6.2028223 C15.6114599,5.09079007 14.5420306,4.00029367 13.4519615,4.00029367 Z M10.5484225,12.6362126 C9.45883341,12.6362126 8.38892411,13.7183884 8.38892411,14.8220999 L8.38892411,17.8136233 C8.38892411,18.9168454 9.45883341,20 10.5484225,20 L15.6114119,20 L15.6114119,15.5969006 L11.2924151,15.5969006 L11.2924151,17.0241391 L14.196386,17.0241391 L14.196386,18.5575885 L10.5484225,18.5575885 C9.8298697,18.5575885 9.79147009,17.8997666 9.78907011,17.8243912 L9.78907011,14.8377624 C9.7900301,14.7609186 9.81834982,14.0781347 10.5340227,14.0781347 L15.6114119,14.0781347 L15.6114119,12.6362126 L10.5484225,12.6362126 Z M21.8107419,6.96117737 L18.1930181,6.96117737 L18.1930181,5.44339043 L21.8405016,5.44339043 C22.5561744,5.44339043 22.5840142,6.12568485 22.5849742,6.20301808 C22.5816142,6.27203064 22.5326547,6.96117737 21.8107419,6.96117737 Z M23.3241668,7.71737887 C23.596324,7.45699104 24,6.9489411 24,6.20252863 C24,5.09098585 22.9305707,4 21.8405016,4 L16.7784722,4 L16.7784722,11.3647663 L18.1930181,11.3647663 L18.1930181,8.4045678 L21.8405016,8.4045678 C22.5561744,8.4045678 22.5840142,9.08637277 22.5849742,9.16419545 L22.5849742,11.3647663 L24,11.3647663 L24,9.17741062 C24,8.42414583 23.600644,7.95476251 23.3241668,7.71737887 Z M22.5848782,17.7979119 C22.5848782,18.527683 21.9152848,18.5555817 21.8394456,18.5575395 L18.9373946,18.5575395 C18.8620354,18.5555817 18.1929221,18.527683 18.1929221,17.7979119 L18.1929221,14.8377134 C18.1929221,14.1084317 18.8620354,14.0800436 18.9383546,14.0780858 L21.8404056,14.0780858 C21.9152848,14.0800436 22.5848782,14.1084317 22.5848782,14.8377134 L22.5848782,17.7979119 Z M21.8404056,12.6361637 L18.9373946,12.6361637 C17.8473255,12.6361637 16.7783762,13.7266601 16.7783762,14.8377134 L16.7783762,17.7979119 C16.7783762,18.9094547 17.8473255,19.9999511 18.9373946,19.9999511 L21.8404056,19.9999511 C22.9304747,19.9999511 23.999904,18.9094547 23.999904,17.7979119 L23.999904,14.8377134 C23.999904,13.7266601 22.9304747,12.6361637 21.8404056,12.6361637 L21.8404056,12.6361637 Z" fill="#212121"></path>
            </g>
        </g>
    </g>
</svg>
