<?xml version="1.0" encoding="UTF-8" standalone="no"?>
<svg width="24px" height="24px" viewBox="0 0 24 24" version="1.1" xmlns="http://www.w3.org/2000/svg" xmlns:xlink="http://www.w3.org/1999/xlink" xmlns:sketch="http://www.bohemiancoding.com/sketch/ns">
    <!-- Generator: Sketch 3.2.2 (9983) - http://www.bohemiancoding.com/sketch -->
    <title>ic-carNextDoor-24px</title>
    <desc>Created with Sketch.</desc>
    <defs></defs>
    <g id="Assets" stroke="none" stroke-width="1" fill="none" fill-rule="evenodd">
        <g transform="translate(-267.000000, -150.000000)" id="Car-Next-Door">
            <g transform="translate(267.000000, 150.000000)">
                <rect id="Grid" x="0" y="0" width="24" height="24"></rect>
                <path d="M1.22131483,23.1985334 C1.22131483,23.2781327 1.28337861,23.3483674 1.36199273,23.3483674 L3.21241276,23.3483674 C4.71895348,23.3483674 5.95241359,22.1009987 5.95241359,20.5581759 C5.95241359,19.0322094 4.71895348,17.7839042 3.21241276,17.7839042 L1.36199273,17.7839042 C1.28337861,17.7839042 1.22131483,17.8546071 1.22131483,17.9346747 L1.22131483,23.1985334 Z M2.22766749,22.3795964 L2.22766749,18.7456517 L3.11862749,18.7456517 C4.13371505,18.7456517 4.87480252,19.5238525 4.87480252,20.5581759 C4.87480252,21.599991 4.13371505,22.3795964 3.11862749,22.3795964 L2.22766749,22.3795964 Z M6.43605132,20.574564 C6.43605132,22.16421 7.6777866,23.4293715 9.23857567,23.4293715 C10.8002842,23.4293715 12.0493752,22.16421 12.0493752,20.574564 C12.0493752,18.9839815 10.8002842,17.7043048 9.23857567,17.7043048 C7.6777866,17.7043048 6.43605132,18.9839815 6.43605132,20.574564 L6.43605132,20.574564 Z M7.45113888,20.574564 C7.45113888,19.5725485 8.25566933,18.7376918 9.23857567,18.7376918 C10.2228612,18.7376918 11.0347474,19.5725485 11.0347474,20.574564 C11.0347474,21.5761112 10.2228612,22.3950481 9.23857567,22.3950481 C8.25566933,22.3950481 7.45113888,21.5761112 7.45113888,20.574564 L7.45113888,20.574564 Z M12.5256572,20.574564 C12.5256572,22.16421 13.7669328,23.4293715 15.3281816,23.4293715 C16.8898901,23.4293715 18.1389811,22.16421 18.1389811,20.574564 C18.1389811,18.9839815 16.8898901,17.7043048 15.3281816,17.7043048 C13.7669328,17.7043048 12.5256572,18.9839815 12.5256572,20.574564 L12.5256572,20.574564 Z M13.5407448,20.574564 C13.5407448,19.5725485 14.3448155,18.7376918 15.3281816,18.7376918 C16.3124671,18.7376918 17.1243532,19.5725485 17.1243532,20.574564 C17.1243532,21.5761112 16.3124671,22.3950481 15.3281816,22.3950481 C14.3448155,22.3950481 13.5407448,21.5761112 13.5407448,20.574564 L13.5407448,20.574564 Z M18.6929577,23.1985334 C18.6929577,23.2781327 18.755941,23.3483674 18.8414511,23.3483674 L19.5600117,23.3483674 C19.6381661,23.3483674 19.708505,23.2781327 19.708505,23.1985334 L19.708505,21.1706227 L20.5750993,21.1706227 L21.6127137,23.2781327 C21.6288043,23.309036 21.6683412,23.3483674 21.7382204,23.3483674 L22.557922,23.3483674 C22.6907845,23.3483674 22.7450328,23.2228814 22.6907845,23.118934 L21.6209888,21.0999197 C22.3004723,20.821322 22.7767543,20.2243268 22.7767543,19.4929492 C22.7767543,18.5461851 22.011301,17.7839042 21.0748276,17.7839042 L18.8414511,17.7839042 C18.755941,17.7839042 18.6929577,17.8546071 18.6929577,17.9346747 L18.6929577,23.1985334 Z M19.7158607,20.319846 L19.7158607,18.7376918 L20.9888578,18.7376918 C21.4026163,18.7376918 21.7616667,19.0879289 21.7616667,19.5088691 C21.7616667,19.953689 21.4026163,20.319846 20.9888578,20.319846 L19.7158607,20.319846 Z M1.29946922,16.4658793 C1.29946922,16.5604621 1.38314039,16.6456802 1.47600619,16.6456802 L2.31915409,16.6456802 C2.4207548,16.6456802 2.49569106,16.5604621 2.49569106,16.4658793 L2.49569106,12.4058439 L2.50488569,12.4058439 L6.37950433,16.7397947 L6.60155473,16.7397947 C6.69442053,16.7397947 6.7780917,16.6639412 6.7780917,16.5702949 L6.7780917,10.2159251 C6.7780917,10.1213423 6.69442053,10.0370607 6.60155473,10.0370607 L5.74967192,10.0370607 C5.64761148,10.0370607 5.57267522,10.1213423 5.57267522,10.2159251 L5.57267522,14.1148889 L5.56348059,14.1148889 L1.70725122,9.94154144 L1.47600619,9.94154144 C1.38314039,9.94154144 1.29946922,10.0178632 1.29946922,10.1129142 L1.29946922,16.4658793 Z M7.90903164,16.4658793 C7.90903164,16.5604621 7.98304844,16.6456802 8.08510887,16.6456802 L11.8576671,16.6456802 C11.9597275,16.6456802 12.034204,16.5604621 12.034204,16.4658793 L12.034204,15.6914244 C12.034204,15.5977781 11.9597275,15.5116235 11.8576671,15.5116235 L9.11398838,15.5116235 L9.11398838,13.8606392 L11.4039119,13.8606392 C11.496318,13.8606392 11.5790697,13.783381 11.5790697,13.6813065 L11.5790697,12.8970187 C11.5790697,12.8033724 11.496318,12.7176861 11.4039119,12.7176861 L9.11398838,12.7176861 L9.11398838,11.1687762 L11.8576671,11.1687762 C11.9597275,11.1687762 12.034204,11.0844946 12.034204,10.9899118 L12.034204,10.2159251 C12.034204,10.1213423 11.9597275,10.0370607 11.8576671,10.0370607 L8.08510887,10.0370607 C7.98304844,10.0370607 7.90903164,10.1213423 7.90903164,10.2159251 L7.90903164,16.4658793 Z M12.7941405,16.3806612 C12.719664,16.5038061 12.7941405,16.6456802 12.9605634,16.6456802 L13.961859,16.6456802 C14.0363355,16.6456802 14.0915033,16.5979206 14.1200067,16.5604621 L15.4265641,14.398169 L15.4546078,14.398169 L16.7795545,16.5604621 C16.7988632,16.5979206 16.8632256,16.6456802 16.9377022,16.6456802 L17.9385381,16.6456802 C18.096226,16.6456802 18.1702428,16.5136389 18.096226,16.3806612 L16.1681113,13.2561523 L18.0314039,10.300675 C18.1058804,10.1779984 18.0314039,10.0370607 17.8741756,10.0370607 L16.7988632,10.0370607 C16.7243867,10.0370607 16.6687591,10.0838838 16.6508296,10.1213423 L15.4454131,12.1239685 L15.4357588,12.1239685 L14.2491913,10.1213423 C14.2211477,10.0838838 14.1756342,10.0370607 14.1011577,10.0370607 L13.0253855,10.0370607 C12.8681573,10.0370607 12.7941405,10.1779984 12.8681573,10.300675 L14.7217955,13.2561523 L12.7941405,16.3806612 Z M20.0891629,16.4658793 C20.0891629,16.5604621 20.1723743,16.6456802 20.2652401,16.6456802 L21.1276967,16.6456802 C21.2196431,16.6456802 21.3033142,16.5604621 21.3033142,16.4658793 L21.3033142,11.1687762 L22.7220462,11.1687762 C22.8231872,11.1687762 22.8976637,11.0844946 22.8976637,10.9899118 L22.8976637,10.2159251 C22.8976637,10.1213423 22.8231872,10.0370607 22.7220462,10.0370607 L18.6704309,10.0370607 C18.5688302,10.0370607 18.4943537,10.1213423 18.4943537,10.2159251 L18.4943537,10.9899118 C18.4943537,11.0844946 18.5688302,11.1687762 18.6704309,11.1687762 L20.0891629,11.1687762 L20.0891629,16.4658793 Z M1,4.68419122 C1,7.04220511 2.86329251,8.91606761 5.17804154,8.91606761 C6.20784051,8.91606761 7.20315961,8.55084703 7.98976052,7.77264626 C8.07113303,7.69023752 8.09411961,7.53759404 8.00125381,7.45424884 L7.28407239,6.69992787 C7.2146529,6.62922492 7.08730723,6.6170509 6.99490116,6.69992787 C6.50850504,7.10073405 5.91820955,7.37137186 5.22401471,7.37137186 C3.74321896,7.37137186 2.63204748,6.12259842 2.63204748,4.64954209 C2.63204748,3.16384351 3.7308062,1.90242782 5.21206169,1.90242782 C5.86074309,1.90242782 6.50850504,2.16182808 6.99490116,2.59821985 C7.08730723,2.69233438 7.20315961,2.69233438 7.28407239,2.59821985 L7.98976052,1.85560467 C8.08308605,1.76102191 8.08308605,1.61961599 7.97872696,1.52550146 C7.19166632,0.806766089 6.34667948,0.429371492 5.17804154,0.429371492 C2.86329251,0.429371492 1,2.3271138 1,4.68419122 Z M8.64947549,8.79807327 L9.65628788,8.79807327 C9.84155974,8.79807327 9.94591884,8.68007893 9.99235174,8.56208459 L10.5596606,7.28896311 L14.0191416,7.28896311 L14.5864505,8.56208459 C14.6673632,8.72737031 14.7487357,8.79807327 14.9225143,8.79807327 L15.9293267,8.79807327 C16.1026455,8.79807327 16.1955113,8.64496157 16.1260919,8.49138163 L12.5608727,0.558603389 C12.5263928,0.487900431 12.4804196,0.429371492 12.365027,0.429371492 L12.2487148,0.429371492 C12.1448155,0.429371492 12.0868893,0.487900431 12.0519497,0.558603389 L8.45271033,8.49138163 C8.38375057,8.64496157 8.47615664,8.79807327 8.64947549,8.79807327 L8.64947549,8.79807327 Z M11.1260501,5.98119251 L12.2606679,3.38718994 L12.2951477,3.38718994 L13.4522924,5.98119251 L11.1260501,5.98119251 Z M16.9471727,8.57472684 C16.9471727,8.69272118 17.0400385,8.79807327 17.1669244,8.79807327 L18.2321227,8.79807327 C18.3475154,8.79807327 18.4518745,8.69272118 18.4518745,8.57472684 L18.4518745,5.56868055 L19.7368245,5.56868055 L21.2760062,8.69272118 C21.2989928,8.73860787 21.3564592,8.79807327 21.4612781,8.79807327 L22.6749697,8.79807327 C22.8726543,8.79807327 22.9535671,8.60937597 22.8726543,8.4567325 L21.2870397,5.46239199 C22.2943119,5.0494118 23,4.16585894 23,3.08143476 C23,1.67861316 21.8658419,0.546897601 20.4769925,0.546897601 L17.1669244,0.546897601 C17.0400385,0.546897601 16.9471727,0.653186154 16.9471727,0.771180494 L16.9471727,8.57472684 Z M18.4633677,4.30632839 L18.4633677,1.96189322 L20.3501066,1.96189322 C20.9633886,1.96189322 21.4952982,2.47975727 21.4952982,3.10531457 C21.4952982,3.76505277 20.9633886,4.30632839 20.3501066,4.30632839 L18.4633677,4.30632839 Z" fill="#212121"></path>
            </g>
        </g>
    </g>
</svg>