<?xml version="1.0" encoding="UTF-8" standalone="no"?>
<svg width="24px" height="24px" viewBox="0 0 24 24" version="1.1" xmlns="http://www.w3.org/2000/svg" xmlns:xlink="http://www.w3.org/1999/xlink" xmlns:sketch="http://www.bohemiancoding.com/sketch/ns">
    <!-- Generator: Sketch 3.2.2 (9983) - http://www.bohemiancoding.com/sketch -->
    <title>ic-car-pool-24px</title>
    <desc>Created with Sketch.</desc>
    <defs></defs>
    <g id="Assets" stroke="none" stroke-width="1" fill="none" fill-rule="evenodd">
        <g transform="translate(-5.000000, -150.000000)" id="Car---Pool">
            <g transform="translate(5.000000, 150.000000)">
                <rect id="Grid" x="0" y="0" width="24" height="24"></rect>
                <path d="M12.4506029,8.23376424 L12.4285714,7 C12.9017143,7 13.557,7.26375 13.8917143,7.58916667 L16.7142857,10.3333333 L22.6028571,11.1658333 C22.8664286,11.2033333 23.1972857,11.4075 23.3421429,11.6216667 L23.8491429,12.3729167 C23.9314286,12.6175 24,13.0258333 24,13.2825 L24,14.7654167 C24,15.025 23.8084286,15.3266667 23.5714286,15.4416667 L22.5085714,15.9566667 C22.4747143,15.9729167 22.4378571,15.9891667 22.3988571,16.00375 C22.3367143,16.0275 22.2857143,15.9508333 22.2857143,15.8354167 L22.2857143,15.3333333 C22.2857143,13.9525 21.1341429,12.8333333 19.7142857,12.8333333 C18.294,12.8333333 17.1428571,13.9525 17.1428571,15.3333333 L17.1428566,15.552083 C17.1428566,15.7824997 16.9512852,15.9687497 16.7142852,15.9687497 L7.28571374,15.9687497 C7.04871374,15.9687497 6.85714231,15.7824997 6.85714231,15.552083 L6.85714286,15.3333333 C6.85714286,13.9525 5.70514286,12.8333333 4.28571429,12.8333333 C2.86542857,12.8333333 1.71428571,13.9525 1.71428571,15.3333333 L1.71428571,15.5520833 C1.71428571,15.6679167 1.65214286,15.7558333 1.57542857,15.7491667 C1.49914286,15.7433333 1.43742857,15.73875 1.43742857,15.73875 C1.17342857,15.7166667 0.807,15.5520833 0.619285714,15.37 L0.338142857,15.0958333 C0.150857143,14.91375 0,14.55625 0,14.2991667 L0,12.165 C0,11.9079167 0.273406982,11.4379339 0.273406982,11.4379339 C0.39396286,11.1992724 0.724013124,11 1.00034732,11 L10,11 L14.8708939,11 C15.0020755,11 15.0397604,10.9271429 14.9538961,10.8375714 L12.5573281,8.32571429 C12.5269435,8.29377749 12.4908676,8.26292001 12.4506029,8.23376424 L12.4506029,8.23376424 Z M19.6999969,13.5 C18.5954969,13.5 17.6999969,14.3945 17.6999969,15.5 C17.6999969,16.6035 18.5954969,17.5 19.6999969,17.5 C20.8044969,17.5 21.6999969,16.6035 21.6999969,15.5 C21.6999969,14.3945 20.8044969,13.5 19.6999969,13.5 Z M4.30000305,13.5 C3.19550305,13.5 2.30000305,14.3945 2.30000305,15.5 C2.30000305,16.6035 3.19550305,17.5 4.30000305,17.5 C5.40450305,17.5 6.30000305,16.6035 6.30000305,15.5 C6.30000305,14.3945 5.40450305,13.5 4.30000305,13.5 Z M3.5,7 C2.671625,7 2,7.671625 2,8.5 C2,9.328375 2.671625,10 3.5,10 C4.328375,10 5,9.328375 5,8.5 C5,7.671625 4.328375,7 3.5,7 Z M9,6 C7.8952,6 7,6.8952 7,8 C7,9.1044 7.8952,10 9,10 C10.1048,10 11,9.1044 11,8 C11,6.8952 10.1048,6 9,6" fill="#212121"></path>
            </g>
        </g>
    </g>
</svg>