<?xml version="1.0" encoding="UTF-8" standalone="no"?>
<svg width="24px" height="24px" viewBox="0 0 24 24" version="1.1" xmlns="http://www.w3.org/2000/svg" xmlns:xlink="http://www.w3.org/1999/xlink" xmlns:sketch="http://www.bohemiancoding.com/sketch/ns">
    <!-- Generator: Sketch 3.2.2 (9983) - http://www.bohemiancoding.com/sketch -->
    <title>ic-divvy-24px</title>
    <desc>Created with Sketch.</desc>
    <defs></defs>
    <g id="Assets" stroke="none" stroke-width="1" fill="none" fill-rule="evenodd">
        <g transform="translate(-34.000000, -179.000000)" id="Divvy">
            <g transform="translate(34.000000, 179.000000)">
                <rect id="Grid" x="0" y="0" width="24" height="24"></rect>
                <path d="M23.9650346,10.5002478 C23.928635,10.4422917 23.8606357,10.408824 23.7786365,10.408824 L23.1834426,10.408824 C23.1006435,10.408824 23.0350441,10.474943 22.9762447,10.5504492 L21.2506624,12.6740113 L19.5258801,10.5504492 C19.4678807,10.474943 19.4022813,10.408824 19.3182822,10.408824 L18.7246883,10.408824 C18.6426891,10.408824 18.5742898,10.4422917 18.5366902,10.5002478 C18.4998906,10.5594284 18.4858907,10.6394242 18.5334902,10.7128897 L20.7878671,13.5184568 L20.7878671,14.816756 C20.7878671,14.9314438 20.8926661,15.032663 21.0110649,15.032663 L21.4910599,15.032663 C21.6102587,15.032663 21.7146577,14.9314438 21.7146577,14.816756 L21.7146577,13.5184568 L23.9702346,10.7128897 C24.0174341,10.6394242 24.0030342,10.5594284 23.9650346,10.5002478 Z M3.46876448,14.0981814 L0.927590502,14.0981814 L0.927590502,11.3436321 L3.46876448,11.3436321 C4.02835875,11.3436321 4.4827541,11.8080975 4.4827541,12.3799043 L4.4827541,13.0512976 C4.4827541,13.6284102 4.02835875,14.0981814 3.46876448,14.0981814 Z M3.46876448,10.4089873 L0.212397825,10.4089873 C0.095999017,10.4089873 0,10.5053088 0,10.6253025 L0,14.8169192 C0,14.9356885 0.095999017,15.0328263 0.212397825,15.0328263 L3.46876448,15.0328263 C4.53915352,15.0328263 5.4103446,14.1438933 5.4103446,13.0512976 L5.4103446,12.3799043 C5.4103446,11.2926144 4.53915352,10.4089873 3.46876448,10.4089873 Z M10.6323711,11.3436321 C10.74557,11.3436321 10.845169,11.2375152 10.845169,11.1167052 L10.845169,10.6371386 C10.845169,10.514696 10.74557,10.4089873 10.6323711,10.4089873 L6.55761285,10.4089873 C6.44441401,10.4089873 6.34601502,10.514696 6.34601502,10.6371386 L6.34601502,11.1167052 C6.34601502,11.2375152 6.44441401,11.3436321 6.55761285,11.3436321 L8.13199673,11.3436321 L8.13199673,14.0981814 L6.55761285,14.0981814 C6.44441401,14.0981814 6.34601502,14.2055227 6.34601502,14.3251083 L6.34601502,14.8058994 C6.34601502,14.9267094 6.44441401,15.0328263 6.55761285,15.0328263 L10.6323711,15.0328263 C10.74557,15.0328263 10.845169,14.9267094 10.845169,14.8058994 L10.845169,14.3251083 C10.845169,14.2055227 10.74557,14.0981814 10.6323711,14.0981814 L9.05918724,14.0981814 L9.05918724,11.3436321 L10.6323711,11.3436321 Z M17.7576582,9 C17.7160586,9 17.6532592,9.01428496 17.5892599,9.08040394 L14.8684878,11.8545441 L12.1493156,9.08040394 C12.0873162,9.01428496 12.0233169,9 11.9813173,9 C11.8781184,9 11.8053191,9.08203651 11.8053191,9.20080579 L11.8053191,10.0252523 C11.8053191,10.1089214 11.8381188,10.1611636 11.8825183,10.2068754 C11.9197179,10.2448326 14.3824927,12.7442933 14.4200923,12.7822505 C14.4692918,12.8328601 14.551691,12.8679603 14.6212903,12.8679603 L15.1172852,12.8679603 C15.1852845,12.8679603 15.2700836,12.8328601 15.3192831,12.7822505 C15.3560828,12.7442933 17.8192575,10.2448326 17.8560572,10.2068754 C17.9004567,10.1611636 17.9332564,10.1089214 17.9332564,10.0252523 L17.9332564,9.20080579 C17.9332564,9.08203651 17.8620571,9 17.7576582,9 Z M17.7576582,12.1312234 C17.7160586,12.1312234 17.6532592,12.1463247 17.5892599,12.2132599 L14.8684878,14.9878082 L12.1493156,12.2132599 C12.0873162,12.1463247 12.0233169,12.1312234 11.9813173,12.1312234 C11.8781184,12.1312234 11.8053191,12.2148925 11.8053191,12.3340699 L11.8053191,13.1564758 C11.8053191,13.240553 11.8381188,13.2944277 11.8825183,13.3393233 C11.9197179,13.3772805 14.3824927,15.8775574 14.4200923,15.9151065 C14.4692918,15.9657161 14.551691,16 14.6212903,16 L15.1172852,16 C15.1852845,16 15.2700836,15.9657161 15.3192831,15.9151065 C15.3560828,15.8775574 17.8192575,13.3772805 17.8560572,13.3393233 C17.9004567,13.2944277 17.9332564,13.240553 17.9332564,13.1564758 L17.9332564,12.3340699 C17.9332564,12.2148925 17.8620571,12.1312234 17.7576582,12.1312234 Z" fill="#212121"></path>
            </g>
        </g>
    </g>
</svg>