<?xml version="1.0" encoding="UTF-8" standalone="no"?>
<svg width="24px" height="24px" viewBox="0 0 24 24" version="1.1" xmlns="http://www.w3.org/2000/svg" xmlns:xlink="http://www.w3.org/1999/xlink" xmlns:sketch="http://www.bohemiancoding.com/sketch/ns">
    <!-- Generator: Sketch 3.2.2 (9983) - http://www.bohemiancoding.com/sketch -->
    <title>ic-ferry-realtime-24px</title>
    <desc>Created with Sketch.</desc>
    <defs></defs>
    <g id="Assets" stroke="none" stroke-width="1" fill="none" fill-rule="evenodd">
        <g transform="translate(-180.000000, -121.000000)" id="Ferry---Realtime">
            <g transform="translate(180.000000, 121.000000)">
                <rect id="Grid" x="0" y="0" width="24" height="24"></rect>
                <path d="M20.0005,18.2715194 C19.6745,18.2715194 19.4375,18.2092493 19.2265,18.1002767 L21.2845,15.0986652 C21.558,14.6997476 21.3895,14.2911004 20.9105,14.1884521 L19.9835,13.982669 L18.723,6.51999149 C18.4425,5.60685944 17.479,5 16.5,5 L14.5,5 L14.226593,4.45318604 C14.1014491,4.2028983 13.7849426,4 13.5095215,4 L10.4904785,4 C10.2195947,4 9.90359497,4.19281006 9.77340698,4.45318604 L9.5,5 L7.5,5 C6.5205,5 5.5575,5.60685944 5.2765,6.51999149 L4.016,13.982669 L3.09,14.1884521 C2.611,14.2911004 2.442,14.6997476 2.716,15.0986652 L4.7735,18.1002767 C4.5625,18.2092493 4.3255,18.2715194 3.999,18.2715194 C3.3245,18.2715194 3.023,18.0078446 2.5675,17.6157378 C2.014,17.1370367 1.3235,16.5406063 0,16.5406063 L0,18.2715194 C0.6775,18.2715194 0.9765,18.5283834 1.432,18.9219496 C1.988,19.4011372 2.676,20 3.999,20 C5.323,20 6.013,19.4011372 6.5665,18.9219496 C7.022,18.5283834 7.3235,18.2715194 8.0005,18.2715194 C8.6765,18.2715194 8.9775,18.5283834 9.4325,18.9219496 C9.9865,19.4011372 10.6765,20 12,20 C13.3235,20 14.0135,19.4011372 14.5675,18.9219496 C15.0225,18.5283834 15.324,18.2715194 15.999,18.2715194 C16.677,18.2715194 16.978,18.5283834 17.433,18.9219496 C17.9875,19.4011372 18.6775,20 20.0005,20 C21.3245,20 22.0125,19.4011372 22.568,18.9219496 C23.023,18.5283834 23.3225,18.2715194 24,18.2715194 L24,16.5406063 C22.6765,16.5406063 21.9865,17.1370367 21.4325,17.6157378 C20.977,18.0078446 20.676,18.2715194 20.0005,18.2715194 Z M12.6808736,12.4617677 C13.0661987,12.4862003 13.4296932,12.5318176 13.7335,12.5986196 L18.2195,13.5925081 L17.149,7.41950196 C17.0035,6.96317918 16.489,6.59442367 15.999,6.59442367 L8.0005,6.59442367 C7.5115,6.59442367 6.996,6.96317918 6.851,7.41950196 L5.781,13.5925081 L10.266,12.5986196 C10.5946594,12.526353 10.9931714,12.4788787 11.4136074,12.4561969 C11.5017901,12.1912311 11.7518622,12 12.0463272,12 C12.3428519,12 12.5943605,12.1939157 12.6808736,12.4617677 L12.6808736,12.4617677 Z M12.0463272,8 C10.5693272,8 9.2549939,8.688 8.3999939,9.75866667 L9.15032723,10.4256667 C9.82166056,9.56033333 10.8686606,9 12.0463272,9 C13.2239939,9 14.2709939,9.56033333 14.9423272,10.4256667 L15.6926606,9.75866667 C14.8376606,8.688 13.5233272,8 12.0463272,8 Z M12.0463272,10 C11.1639939,10 10.3839939,10.4303333 9.89866056,11.0906667 L10.6513272,11.76 C10.9489939,11.3036667 11.4619939,11 12.0463272,11 C12.6306606,11 13.1436606,11.3036667 13.4413272,11.76 L14.1939939,11.0906667 C13.7086606,10.4303333 12.9286606,10 12.0463272,10 Z" fill="#212121"></path>
            </g>
        </g>
    </g>
</svg>