<?xml version="1.0" encoding="UTF-8" standalone="no"?>
<svg width="24px" height="24px" viewBox="0 0 24 24" version="1.1" xmlns="http://www.w3.org/2000/svg" xmlns:xlink="http://www.w3.org/1999/xlink" xmlns:sketch="http://www.bohemiancoding.com/sketch/ns">
    <!-- Generator: Sketch 3.2.2 (9983) - http://www.bohemiancoding.com/sketch -->
    <title>ic-lightRail-realtime-24px</title>
    <desc>Created with Sketch.</desc>
    <defs></defs>
    <g id="Assets" stroke="none" stroke-width="1" fill="none" fill-rule="evenodd">
        <g transform="translate(-64.000000, -121.000000)" id="Light-Rail---Realtime">
            <g transform="translate(64.000000, 121.000000)">
                <rect id="Grid" x="0" y="0" width="24" height="24"></rect>
                <path d="M6,23 L7.5,23 L9,21 L7.5,21 L6,23 Z M15,21 L16.5,23 L18,23 L16.5,21 L15,21 Z M16.0005,18.0425532 C15.448,18.0425532 15,17.5855319 15,17.0212766 C15,16.4575319 15.448,16 16.0005,16 C16.5525,16 17,16.4575319 17,17.0212766 C17,17.5855319 16.5525,18.0425532 16.0005,18.0425532 Z M8.0005,18.0425532 C7.448,18.0425532 7,17.5855319 7,17.0212766 C7,16.4575319 7.448,16 8.0005,16 C8.5525,16 9,16.4575319 9,17.0212766 C9,17.5855319 8.5525,18.0425532 8.0005,18.0425532 L8.0005,18.0425532 Z M14,2.0212766 L13,4 L11,4 L10,2.0212766 L14,2.0212766 Z M19,14.990778 C19,14.4435864 18.9336114,13.5574094 18.8506904,13.0046024 L17.7963517,5.97567821 C17.6326812,4.88454126 16.5999011,4.01915104 15.4989566,4.04257539 L14.5,4.06382979 L15.5,2 L16.4921684,2 C16.7726361,2 17,2.23193359 17,2.5 L17,3 L18,3 L18,2.49531555 C18,1.66947558 17.3204455,1 16.5044548,1 L7.49554521,1 C6.6695784,1 6,1.67710876 6,2.49531555 L6,3 L7,3 L7,2.5 C7,2.22385763 7.22133017,2 7.50783157,2 L8.5,2 L9.5,4 L8.50104344,4 C7.39589766,4 6.36688501,4.88743329 6.20364827,5.97567821 L5.14930964,13.0046024 C5.0668482,13.5543453 5,14.4509752 5,14.990778 L5,17 C5,18.6568542 6.34237885,20 8.00335124,20 L15.9966488,20 C17.6553538,20 19,18.6534829 19,17 L19,14.990778 Z M12.5570549,14 L16.0046024,14 C16.5443356,14 16.9477651,13.5560037 16.8833302,13.0083065 L16.11667,6.49169342 C16.0523566,5.94502917 15.5536146,5.49999996 15.0029701,5.49999996 L8.99703017,5.49999996 C8.45303632,5.49999996 7.94776514,5.94399625 7.88333018,6.49169342 L7.11666982,13.0083065 C7.05235638,13.5549708 7.44565467,14 7.99539756,14 L11.4022785,14 C11.345504,13.9019236 11.313,13.7880679 11.313,13.6666667 C11.313,13.2986667 11.6116667,13 11.9796667,13 C12.3476667,13 12.6463333,13.2986667 12.6463333,13.6666667 C12.6463333,13.7880679 12.6138293,13.9019236 12.5570549,14 L12.5570549,14 Z M11.9796667,9 C10.5026667,9 9.18833333,9.688 8.33333333,10.7586667 L9.08366667,11.4256667 C9.755,10.5603333 10.802,10 11.9796667,10 C13.1573333,10 14.2043333,10.5603333 14.8756667,11.4256667 L15.626,10.7586667 C14.771,9.688 13.4566667,9 11.9796667,9 Z M11.9796667,11 C11.0973333,11 10.3173333,11.4303333 9.832,12.0906667 L10.5846667,12.76 C10.8823333,12.3036667 11.3953333,12 11.9796667,12 C12.564,12 13.077,12.3036667 13.3746667,12.76 L14.1273333,12.0906667 C13.642,11.4303333 12.862,11 11.9796667,11 Z" fill="#212121"></path>
            </g>
        </g>
    </g>
</svg>