<?xml version="1.0" encoding="UTF-8" standalone="no"?>
<svg width="25px" height="24px" viewBox="0 0 25 24" version="1.1" xmlns="http://www.w3.org/2000/svg" xmlns:xlink="http://www.w3.org/1999/xlink" xmlns:sketch="http://www.bohemiancoding.com/sketch/ns">
    <!-- Generator: Sketch 3.2.2 (9983) - http://www.bohemiancoding.com/sketch -->
    <title>ic-lightRail-24px</title>
    <desc>Created with Sketch.</desc>
    <defs></defs>
    <g id="Assets" stroke="none" stroke-width="1" fill="none" fill-rule="evenodd">
        <g transform="translate(-34.000000, -121.000000)" id="Light-Rail">
            <g transform="translate(34.000000, 121.000000)">
                <rect id="Grid" x="0" y="0" width="25" height="24"></rect>
                <path d="M6.25,23 L7.8125,23 L9.375,21 L7.8125,21 L6.25,23 Z M15.625,21 L17.1875,23 L18.75,23 L17.1875,21 L15.625,21 Z M16.6671875,18.0425532 C16.0916667,18.0425532 15.625,17.5855319 15.625,17.0212766 C15.625,16.4575319 16.0916667,16 16.6671875,16 C17.2421875,16 17.7083333,16.4575319 17.7083333,17.0212766 C17.7083333,17.5855319 17.2421875,18.0425532 16.6671875,18.0425532 Z M8.33385417,18.0425532 C7.75833333,18.0425532 7.29166667,17.5855319 7.29166667,17.0212766 C7.29166667,16.4575319 7.75833333,16 8.33385417,16 C8.90885417,16 9.375,16.4575319 9.375,17.0212766 C9.375,17.5855319 8.90885417,18.0425532 8.33385417,18.0425532 L8.33385417,18.0425532 Z M14.5833333,2.0212766 L13.5416667,4 L11.4583333,4 L10.4166667,2.0212766 L14.5833333,2.0212766 Z M19.7916667,14.990778 C19.7916667,14.4435864 19.7225119,13.5574094 19.6361358,13.0046024 L18.5378664,5.97567821 C18.3673762,4.88454126 17.342026,4.01812032 16.2323634,4.04078577 L15.1041667,4.06382979 L16.1458333,2 L17.2139486,2 C17.4869897,2 17.7083333,2.23193359 17.7083333,2.5 L17.7083333,3 L18.75,3 L18.75,2.49531555 C18.75,1.66947558 18.0779457,1 17.2422079,1 L7.75779206,1 C6.9250615,1 6.25,1.67710876 6.25,2.49531555 L6.25,3 L7.29166667,3 L7.29166667,2.5 C7.29166667,2.22385763 7.5089256,2 7.78605143,2 L8.85416667,2 L9.89583333,4 L8.76763662,4 C7.66483262,4 6.63217188,4.88743329 6.46213361,5.97567821 L5.3638642,13.0046024 C5.27796688,13.5543453 5.20833333,14.4509752 5.20833333,14.990778 L5.20833333,17 C5.20833333,18.6568542 6.55415853,20 8.21232694,20 L16.7876731,20 C18.4467329,20 19.7916667,18.6534829 19.7916667,17 L19.7916667,14.990778 Z M8.21180227,6.49169342 C8.27892203,5.94399625 8.78136954,5.49999996 9.33852807,5.49999996 L15.6614722,5.49999996 C16.2166259,5.49999996 16.7212048,5.94502917 16.7881979,6.49169342 L17.5868023,13.0083065 C17.653922,13.5560037 17.2607422,14 16.7095395,14 L8.29046045,14 C7.73884188,14 7.34620456,13.5549708 7.41319773,13.0083065 L8.21180227,6.49169342 Z" fill="#212121"></path>
            </g>
        </g>
    </g>
</svg>