<?xml version="1.0" encoding="UTF-8" standalone="no"?>
<svg width="24px" height="24px" viewBox="0 0 24 24" version="1.1" xmlns="http://www.w3.org/2000/svg" xmlns:xlink="http://www.w3.org/1999/xlink" xmlns:sketch="http://www.bohemiancoding.com/sketch/ns">
    <!-- Generator: Sketch 3.2.2 (9983) - http://www.bohemiancoding.com/sketch -->
    <title>ic-monorail-realtime-24px</title>
    <desc>Created with Sketch.</desc>
    <defs></defs>
    <g id="Assets" stroke="none" stroke-width="1" fill="none" fill-rule="evenodd">
        <g transform="translate(-5.000000, -121.000000)" id="Monorail---Realtime">
            <g transform="translate(5.000000, 121.000000)">
                <rect id="Grid" x="0" y="0" width="24" height="24"></rect>
                <path d="M7.75,2 C6.83,2 5.902,2.7255 5.6795,3.619 L4.606,7.909 C4.2715,9.2465 4,11.079 4,11.9995 L4,15.668 C4,16.5885 4.2205,17.9965 4.4935,18.8135 L4.9865,20.2935 C5.132,20.7295 5.619,21.136 6.075,21.2025 L8.75015877,21.4741779 C8.88786613,21.4881629 8.9995,21.3818368 8.9995,21.2518881 L8.9995,20.2476119 C8.9995,20.1108596 8.8919982,20 8.75432205,20 L7.50455828,20 C7.22589844,20 7,19.7849426 7,19.5095215 L7,16.4904785 C7,16.2195947 7.22765279,16 7.50964952,16 L16.4903505,16 C16.7718221,16 17,16.2150574 17,16.4904785 L17,19.5095215 C17,19.7804053 16.7860185,20 16.4954417,20 L15.2456779,20 C15.1102699,20 15.0005,20.1176632 15.0005,20.2476119 L15.0005,21.2518881 C15.0005,21.3886404 15.1115727,21.4882199 15.2498412,21.4741779 L17.925,21.2025 C18.381,21.136 18.8975,20.74 19.0785,20.3185 C19.0785,20.3185 19.285,19.6505 19.539,18.826 C19.7935,18.0015 20,16.5885 20,15.668 L20,11.9995 C20,11.079 19.7285,9.2465 19.394,7.909 L18.3205,3.619 C18.098,2.7255 17.17,2 16.25,2 L7.75,2 Z M16,17.2452393 C16,17.1097974 15.8869095,17 15.7518034,17 L8.2481966,17 C8.1111214,17 8,17.1075287 8,17.2452393 L8,18.7547607 C8,18.8902026 8.10742188,19 8.24884939,19 L10.5,19 L10.5,22 L13.5,22 L13.5,19 L15.7511506,19 C15.8885863,19 16,18.8924713 16,18.7547607 L16,17.2452393 Z M12.7912237,13.9999997 L17.4996527,13.9999997 C17.7709994,13.9999997 18,13.7785285 17.9999999,13.50533 L17.9999997,12.5498046 C17.9999997,12.0039043 17.9122032,11.1133217 17.8039008,10.5677987 L16.6960987,4.98775695 C16.5871299,4.43887645 16.053384,4 15.5024554,4 L8.49754465,4 C7.9463114,4 7.41220357,4.44223385 7.3039012,4.98775695 L6.1960988,10.5677987 C6.08712988,11.1166791 6,12.000696 6,12.5498046 L6,13.50533 C6,13.7744138 6.22401312,13.9999997 6.50034732,13.9999997 L11.157943,13.9999997 C11.1469968,13.9461433 11.14125,13.8904054 11.14125,13.8333333 C11.14125,13.3733333 11.5145833,13 11.9745833,13 C12.4345833,13 12.8079167,13.3733333 12.8079167,13.8333333 C12.8079167,13.8904054 12.8021698,13.9461433 12.7912237,13.9999997 L12.7912237,13.9999997 Z M11.9745833,8 C10.1283333,8 8.48541667,8.86 7.41666667,10.1983333 L8.35458333,11.0320833 C9.19375,9.95041667 10.5025,9.25 11.9745833,9.25 C13.4466667,9.25 14.7554167,9.95041667 15.5945833,11.0320833 L16.5325,10.1983333 C15.46375,8.86 13.8208333,8 11.9745833,8 Z M11.9745833,10.5 C10.8716667,10.5 9.89666667,11.0379167 9.29,11.8633333 L10.2308333,12.7 C10.6029167,12.1295833 11.2441667,11.75 11.9745833,11.75 C12.705,11.75 13.34625,12.1295833 13.7183333,12.7 L14.6591667,11.8633333 C14.0525,11.0379167 13.0775,10.5 11.9745833,10.5 Z" id="Monorail" fill="#212121"></path>
            </g>
        </g>
    </g>
</svg>