<?xml version="1.0" encoding="UTF-8" standalone="no"?>
<svg width="24px" height="24px" viewBox="0 0 24 24" version="1.1" xmlns="http://www.w3.org/2000/svg" xmlns:xlink="http://www.w3.org/1999/xlink" xmlns:sketch="http://www.bohemiancoding.com/sketch/ns">
    <!-- Generator: Sketch 3.2.2 (9983) - http://www.bohemiancoding.com/sketch -->
    <title>ic-monorail-24px</title>
    <desc>Created with Sketch.</desc>
    <defs></defs>
    <g id="Assets" stroke="none" stroke-width="1" fill="none" fill-rule="evenodd">
        <g transform="translate(-325.000000, -92.000000)" id="Monorail">
            <g transform="translate(325.000000, 92.000000)">
                <rect id="Grid" x="0" y="0" width="24" height="24"></rect>
                <path d="M7.75,2 C6.83,2 5.902,2.7255 5.6795,3.619 L4.606,7.909 C4.2715,9.2465 4,11.079 4,11.9995 L4,15.668 C4,16.5885 4.2205,17.9965 4.4935,18.8135 L4.9865,20.2935 C5.132,20.7295 5.619,21.136 6.075,21.2025 L8.75015877,21.4741779 C8.88786613,21.4881629 8.9995,21.3818368 8.9995,21.2518881 L8.9995,20.2476119 C8.9995,20.1108596 8.8919982,20 8.75432205,20 L7.50455828,20 C7.22589844,20 7,19.7849426 7,19.5095215 L7,16.4904785 C7,16.2195947 7.22765279,16 7.50964952,16 L16.4903505,16 C16.7718221,16 17,16.2150574 17,16.4904785 L17,19.5095215 C17,19.7804053 16.7860185,20 16.4954417,20 L15.2456779,20 C15.1102699,20 15.0005,20.1176632 15.0005,20.2476119 L15.0005,21.2518881 C15.0005,21.3886404 15.1115727,21.4882199 15.2498412,21.4741779 L17.925,21.2025 C18.381,21.136 18.8975,20.74 19.0785,20.3185 C19.0785,20.3185 19.285,19.6505 19.539,18.826 C19.7935,18.0015 20,16.5885 20,15.668 L20,11.9995 C20,11.079 19.7285,9.2465 19.394,7.909 L18.3205,3.619 C18.098,2.7255 17.17,2 16.25,2 L7.75,2 Z M16,17.2452393 C16,17.1097974 15.8869095,17 15.7518034,17 L8.2481966,17 C8.1111214,17 8,17.1075287 8,17.2452393 L8,18.7547607 C8,18.8902026 8.10742188,19 8.24884939,19 L10.5,19 L10.5,22 L13.5,22 L13.5,19 L15.7511506,19 C15.8885863,19 16,18.8924713 16,18.7547607 L16,17.2452393 Z M6.50034732,13.9999997 C6.22401312,13.9999997 6,13.7744138 6,13.50533 L6,12.5498046 C6,12.000696 6.08712988,11.1166791 6.1960988,10.5677987 L7.3039012,4.98775695 C7.41220357,4.44223385 7.9463114,4 8.49754465,4 L15.5024554,4 C16.053384,4 16.5871299,4.43887645 16.6960987,4.98775695 L17.8039008,10.5677987 C17.9122032,11.1133217 17.9999997,12.0039043 17.9999997,12.5498046 L17.9999999,13.50533 C18,13.7785285 17.7709994,13.9999997 17.4996527,13.9999997 L6.50034732,13.9999997 Z" fill="#212121"></path>
            </g>
        </g>
    </g>
</svg>