<?xml version="1.0" encoding="UTF-8" standalone="no"?>
<svg width="24px" height="24px" viewBox="0 0 24 24" version="1.1" xmlns="http://www.w3.org/2000/svg" xmlns:xlink="http://www.w3.org/1999/xlink" xmlns:sketch="http://www.bohemiancoding.com/sketch/ns">
    <!-- Generator: Sketch 3.2.2 (9983) - http://www.bohemiancoding.com/sketch -->
    <title>ic-publicTransport-24px</title>
    <desc>Created with Sketch.</desc>
    <defs></defs>
    <g id="Assets" stroke="none" stroke-width="1" fill="none" fill-rule="evenodd">
        <g transform="translate(-5.000000, -92.000000)" id="Public-Transport">
            <g transform="translate(5.000000, 92.000000)">
                <rect id="Grid" x="0" y="0" width="24" height="24"></rect>
                <path d="M14.25,18.8979592 C13.5575,18.8979592 13,18.3255102 13,17.622449 C13,16.9193878 13.5575,16.3469388 14.25,16.3469388 C14.9395,16.3469388 15.5,16.9193878 15.5,17.622449 C15.5,18.3255102 14.9395,18.8979592 14.25,18.8979592 L14.25,18.8979592 Z M2.5,14.3061224 C1.948,14.3061224 1.5285,13.85 1.5625,13.2872449 L1.906,7.67091837 C1.958,6.82653061 2.672,6.14285714 3.5,6.14285714 L13.5,6.14285714 C14.328,6.14285714 15.042,6.82653061 15.094,7.67091837 L15.4375,13.2872449 C15.4725,13.85 15.0525,14.3061224 14.5,14.3061224 L2.5,14.3061224 Z M2.75,18.8979592 C2.0575,18.8979592 1.5,18.3255102 1.5,17.622449 C1.5,16.9193878 2.0575,16.3469388 2.75,16.3469388 C3.4395,16.3469388 4,16.9193878 4,17.622449 C4,18.3255102 3.4395,18.8979592 2.75,18.8979592 L2.75,18.8979592 Z M5.5,4.10204082 L11.5,4.10204082 C11.5,4.10204082 12,4.10204082 12,4.6122449 C12,5.12244898 11.5,5.12244898 11.5,5.12244898 L5.5,5.12244898 C5.5,5.12244898 5,5.12244898 5,4.6122449 C5,4.10204082 5.5,4.10204082 5.5,4.10204082 L5.5,4.10204082 Z M16.584,6.42040816 C16.2235,3.85510204 12.878,2.57142857 8.498,2.57142857 C4.1425,2.57142857 0.7275,3.85306122 0.378,6.42040816 C0,9.19489796 0,12.630102 0,12.630102 L0,19.4081633 C0,20.9387755 1.5,20.9387755 1.5,20.9387755 L1.5,22.4693878 C1.5,22.4693878 1.5,24 3,24 C4.5,24 4.5,22.4693878 4.5,22.4693878 L4.5,20.9387755 L12.5,20.9387755 L12.5,22.4693878 C12.5,22.4693878 12.5,24 14,24 C15.5,24 15.5,22.4693878 15.5,22.4693878 L15.5,20.9387755 C15.5,20.9387755 17,20.9387755 17,19.4081633 L17,12.5765306 C17,12.5765306 17,9.39438776 16.584,6.42040816 Z M20,19.3877551 L22.5,23.4693878 L24,23.4693878 L21.5,19.3877551 L20,19.3877551 Z M16.5,22.7551531 L16.5,22.9592347 L20.5,22.9592347 L19.875,21.9388265 L17.548,21.9388265 C17.2695,22.3281122 16.8925,22.5934184 16.5,22.7551531 Z M18,20.4081633 C18,20.5908163 17.9835,20.7586735 17.957,20.9183673 L19.5,20.9183673 L19,19.8979592 L18,19.8979592 L18,20.4081633 Z M21,16.3265306 C20.4475,16.3265306 20,15.869898 20,15.3061224 C20,14.7423469 20.4475,14.2857143 21,14.2857143 C21.5525,14.2857143 22,14.7423469 22,15.3061224 C22,15.869898 21.5525,16.3265306 21,16.3265306 Z M18,2.04081633 L14,2.04081633 L14,1.02040816 L18,1.02040816 L18,2.04081633 Z M20,0 L12,0 C12,0 9.086,0.00918367347 8.2365,2.55663265 C8.324,2.55561224 8.409,2.55102041 8.498,2.55102041 C10.16,2.55102041 11.634,2.72755102 12.8875,3.06122449 L21,3.06122449 C21,3.06122449 22,3.06122449 22,4.08163265 L22,11.2244898 C22,11.7877551 21.5525,12.244898 21,12.244898 L17.9735,12.244898 C17.999,13.0183673 18,13.5255102 18,13.5765306 L18,18.3673469 L21,18.3673469 C22.657,18.3673469 24,16.9969388 24,15.3061224 L24,4.08163265 C24,0 20,0 20,0 L20,0 Z" fill="#212121"></path>
            </g>
        </g>
    </g>
</svg>