<?xml version="1.0" encoding="UTF-8" standalone="no"?>
<svg width="24px" height="24px" viewBox="0 0 24 24" version="1.1" xmlns="http://www.w3.org/2000/svg" xmlns:xlink="http://www.w3.org/1999/xlink" xmlns:sketch="http://www.bohemiancoding.com/sketch/ns">
    <!-- Generator: Sketch 3.2.2 (9983) - http://www.bohemiancoding.com/sketch -->
    <title>ic-parking-24px</title>
    <desc>Created with Sketch.</desc>
    <defs></defs>
    <g id="Assets" stroke="none" stroke-width="1" fill="none" fill-rule="evenodd">
        <g transform="translate(-63.000000, -150.000000)" id="Parking">
            <g transform="translate(63.000000, 150.000000)">
                <rect id="Grid" x="0" y="0" width="24" height="24"></rect>
                <path d="M15.9049346,13.0243476 C15.1643569,13.6409376 14.1086647,13.9505925 12.7347494,13.9505925 L10.1077581,13.9505925 L10.1077581,18.490125 L7.4858179,18.490125 L7.4858179,5.86071359 L12.9064888,5.86071359 C14.1564564,5.86071359 15.1527004,6.18862915 15.8971636,6.83824386 C16.6412382,7.49018973 17.011527,8.49724794 17.011527,9.86291524 C17.011527,11.3525222 16.6412382,12.4069805 15.9049346,13.0243476 M5.92384406,3 C4.30902733,3 3,4.30855404 3,5.92520883 L3,18.0747912 C3,19.6895033 4.30902733,21 5.92384406,21 L18.076933,21 C19.6909727,21 21,19.6895033 21,18.0747912 L21,5.92520883 C21,4.30855404 19.6909727,3 18.076933,3 L5.92384406,3 Z M12.484445,8.05432882 L10.1076804,8.05432882 L10.1076804,11.7729068 L12.484445,11.7729068 C13.0870872,11.7729068 13.5545137,11.6217704 13.8894444,11.319109 C14.2239865,11.0164476 14.3902862,10.535453 14.3902862,9.88078741 C14.3902862,9.22223661 14.2239865,8.75561743 13.8894444,8.47393641 C13.5545137,8.19497507 13.0870872,8.05432882 12.484445,8.05432882 Z" fill="#212121"></path>
            </g>
        </g>
    </g>
</svg>