<?xml version="1.0" encoding="UTF-8" standalone="no"?>
<svg width="24px" height="24px" viewBox="0 0 24 24" version="1.1" xmlns="http://www.w3.org/2000/svg" xmlns:xlink="http://www.w3.org/1999/xlink" xmlns:sketch="http://www.bohemiancoding.com/sketch/ns">
    <!-- Generator: Sketch 3.2.2 (9983) - http://www.bohemiancoding.com/sketch -->
    <title>ic-plane-24px</title>
    <desc>Created with Sketch.</desc>
    <defs></defs>
    <g id="Assets" stroke="none" stroke-width="1" fill="none" fill-rule="evenodd">
        <g transform="translate(-121.000000, -150.000000)" id="Plane">
            <g transform="translate(121.000000, 150.000000)">
                <rect id="Grid" x="0" y="0" width="24" height="24"></rect>
                <path d="M10.4168621,11.4647373 L8.01533352,14.6051999 L3.14677556,14.3187033 C2.87177228,14.3022035 2.49026774,14.4472018 2.29576543,14.6421995 L2.03076227,14.9076963 C1.98176169,14.9551958 1.99326182,15.016695 2.05676258,15.0451947 L6.291813,16.8591731 L6.12981107,17.0711706 C5.96230908,17.289168 5.98480934,17.624664 6.17931166,17.8196617 C6.37481399,18.0151593 6.71031798,18.0376591 6.92882058,17.8696611 L7.1403231,17.707663 L8.9548447,21.9421126 C8.98284503,22.0056118 9.04384576,22.0171117 9.09284634,21.9686123 L9.35734949,21.7041154 C9.55235181,21.5096177 9.69785355,21.1276223 9.68085334,20.8526256 L9.39484994,15.9841835 L12.5348873,13.5832121 L13.3588971,14.4077023 C13.5533994,14.6012 13.7969023,14.9671956 13.9009036,15.2216926 L17.0309408,22.8856014 C17.0834415,23.0135998 17.2039429,23.0375996 17.3019441,22.9401007 L18.1844546,22.0576112 C18.3799569,21.8626135 18.4989583,21.484118 18.4504577,21.2126213 L16.4194336,9.69925834 L21.3624924,4.75581719 C22.1425017,3.97582648 22.1390017,2.70784157 21.7154966,2.28484661 C21.2919916,1.86035166 20.0239765,1.8573517 19.2439672,2.63784241 L14.3009083,7.58028357 L2.78677127,5.54880775 C2.51576804,5.50080832 2.13726354,5.6203069 1.94226122,5.81530458 L1.05975071,6.69779407 C0.962249551,6.79529291 0.986749842,6.91629147 1.11425136,6.96929084 L8.77784259,10.0987536 C9.03184562,10.2032523 9.39784997,10.4457495 9.5933523,10.6412471 L10.4168621,11.4647373" fill="#212121"></path>
            </g>
        </g>
    </g>
</svg>