<?xml version="1.0" encoding="UTF-8" standalone="no"?>
<svg width="24px" height="24px" viewBox="0 0 24 24" version="1.1" xmlns="http://www.w3.org/2000/svg" xmlns:xlink="http://www.w3.org/1999/xlink" xmlns:sketch="http://www.bohemiancoding.com/sketch/ns">
    <!-- Generator: Sketch 3.2.2 (9983) - http://www.bohemiancoding.com/sketch -->
    <title>ic-subway-24px</title>
    <desc>Created with Sketch.</desc>
    <defs></defs>
    <g id="Assets" stroke="none" stroke-width="1" fill="none" fill-rule="evenodd">
        <g transform="translate(-267.000000, -92.000000)" id="Subway">
            <g transform="translate(267.000000, 92.000000)">
                <rect id="Grid" x="0" y="0" width="24" height="24"></rect>
                <path d="M5.97967164,13.5159579 C6.53372096,13.5159579 6.98338417,13.961871 6.98338417,14.5124117 C6.98338417,15.0634507 6.53372096,15.5088655 5.97967164,15.5088655 C5.42562232,15.5088655 4.97595911,15.0634507 4.97595911,14.5124117 C4.97595911,13.961871 5.42562232,13.5159579 5.97967164,13.5159579 L5.97967164,13.5159579 Z M18.0205095,15.5088655 C17.4664602,15.5088655 17.016797,15.0634507 17.016797,14.5124117 C17.016797,13.961871 17.4664602,13.5159579 18.0205095,13.5159579 C18.5745588,13.5159579 19.024222,13.961871 19.024222,14.5124117 C19.024222,15.0634507 18.5745588,15.5088655 18.0205095,15.5088655 L18.0205095,15.5088655 Z M15.0093719,15.5088655 C14.4553226,15.5088655 14.0056594,15.0634507 14.0056594,14.5124117 C14.0056594,13.961871 14.4553226,13.5159579 15.0093719,13.5159579 C15.5634212,13.5159579 16.0130844,13.961871 16.0130844,14.5124117 C16.0130844,15.0634507 15.5634212,15.5088655 15.0093719,15.5088655 L15.0093719,15.5088655 Z M8.99080924,15.5088655 C8.43675992,15.5088655 7.98709671,15.0634507 7.98709671,14.5124117 C7.98709671,13.961871 8.43675992,13.5159579 8.99080924,13.5159579 C9.54485856,13.5159579 9.99452178,13.961871 9.99452178,14.5124117 C9.99452178,15.0634507 9.54485856,15.5088655 8.99080924,15.5088655 L8.99080924,15.5088655 Z M3.26319159,14.2478532 C3.39284763,15.2802347 3.97417431,16.5394202 4.56081477,17.0589047 C4.56081477,17.0589047 4.79834039,17.2697101 5.09219199,17.5294524 C5.38551222,17.7896652 6.09968321,18 6.68632367,18 L17.3138681,18 C17.9005086,18 18.6146796,17.7896652 18.9079998,17.5289818 C19.0642247,17.3911114 19.2459557,17.2306546 19.439377,17.0589047 C20.0260175,16.5394202 20.6068128,15.2802347 20.7364688,14.2478532 L20.9750572,12.3506052 C21.0069398,12.0927451 21.008534,10.7290427 20.9782455,10.4711826 L20.415517,5.74217898 C20.1700207,3.67459271 19.0785719,1.84039806 17.9780897,1.64559134 C17.3914492,1.54160032 16.7112864,1.42114013 15.9854251,1.29221008 C13.7839292,0.902596641 10.2157312,0.902596641 8.01476673,1.29221008 C8.01476673,1.29221008 7.12258437,1.45031408 6.02210214,1.64559134 C4.92161991,1.84039806 3.83017109,3.67459271 3.58414343,5.74217898 L3.02194633,10.4711826 C2.99165783,10.7290427 2.99272058,12.0927451 3.02513459,12.3506052 L3.26319159,14.2478532 Z M16.5,21 L7.50000002,21 L6.75000001,22 L17.25,22 L16.5,21 Z M15.75,20 L8.25000002,20 L9,19 L15,19 L15.75,20 L15.75,20 Z M16.5,19 L19.5,23 L21,23 L18,19 L16.5,19 Z M6,19 L3,23 L4.5,23 L7.5,19 L6,19 Z M5.90979105,4.53990211 C5.98931975,3.99434366 6.52979026,3.47220187 7.11786978,3.37355294 L9.87486449,2.91219484 C11.0510235,2.71489698 12.4479153,2.70194308 13.6273204,2.88279945 L16.9172115,3.38800152 C17.506914,3.47818059 18.0484666,3.99434366 18.1274542,4.53990211 L18.9952367,10.5310806 C19.0347306,10.8046071 18.8242771,11.0248234 18.5256387,11.0248234 L5.51214758,11.0248234 C5.21296821,11.0248234 5.00305574,10.8046071 5.04254958,10.5310806 L5.90979105,4.53990211 Z" fill="#212121"></path>
            </g>
        </g>
    </g>
</svg>