<?xml version="1.0" encoding="UTF-8" standalone="no"?>
<svg width="24px" height="24px" viewBox="0 0 24 24" version="1.1" xmlns="http://www.w3.org/2000/svg" xmlns:xlink="http://www.w3.org/1999/xlink" xmlns:sketch="http://www.bohemiancoding.com/sketch/ns">
    <!-- Generator: Sketch 3.2.2 (9983) - http://www.bohemiancoding.com/sketch -->
    <title>ic-sidecar-24px</title>
    <desc>Created with Sketch.</desc>
    <defs>
        <path d="M10.1098657,8.44833582 C9.71720149,8.85718657 9.51996269,9.38892537 9.53948507,9.98652985 C9.57494776,11.0959701 10.3576119,11.9114552 11.8653806,12.4096119 C13.3137537,12.8882687 13.5956194,13.3514776 13.5956194,13.9901866 C13.5956194,15.3312313 12.0360224,15.3435896 11.9699552,15.3435896 C11.0268134,15.3458284 10.4187985,14.868 10.254806,14.7742836 C9.85235821,14.5440224 9.58159701,14.6293209 9.41760448,14.8724552 C9.24297761,15.1309925 9.3613209,15.4735522 9.64627612,15.6565522 C9.72118657,15.704709 10.6243881,16.3880597 11.9699552,16.3880597 C13.3075075,16.3880597 14.6624328,15.5650299 14.6641791,13.9915075 C14.6659478,12.414 13.4187985,11.7889925 12.1982239,11.3859179 C10.7985896,10.9235821 10.6071269,10.3458806 10.6071269,9.95115672 C10.6071269,8.9928806 11.5338806,8.68479851 12.1321791,8.68479851 C12.622791,8.68479851 13.0788358,8.88503731 13.3239179,8.99375373 C13.6842313,9.15333582 13.995806,9.07598507 14.1221418,8.78518657 C14.2448955,8.50314179 14.1013209,8.23307463 13.7932836,8.08103731 C13.5269328,7.94977612 12.8523582,7.65671642 12.1321791,7.65671642 C11.3419478,7.65671642 10.5858806,7.95239552 10.1098657,8.44833582 Z M5.95522388,18.6716418 C5.60957463,18.6716418 5.32835821,18.3904254 5.32835821,18.0447761 C5.32835821,17.6991269 5.60957463,17.4179104 5.95522388,17.4179104 C6.30087313,17.4179104 6.58208955,17.6991269 6.58208955,18.0447761 C6.58208955,18.3904254 6.30087313,18.6716418 5.95522388,18.6716418 Z M20.4361119,8.85826119 C20.3454627,8.61492537 20.0747239,8.49114179 19.8314328,8.58181343 C19.588097,8.67246269 19.4643358,8.94320149 19.5549851,9.18651493 C19.8898881,10.0854403 20.0597015,11.0320522 20.0597015,12 C20.0597015,16.4441418 16.4441418,20.0597015 12,20.0597015 C10.3315299,20.0597015 8.7324403,19.5547836 7.37285821,18.5995746 C7.44022388,18.4276343 7.47761194,18.2406269 7.47761194,18.0447761 C7.47761194,17.2039925 6.79600746,16.5223881 5.95522388,16.5223881 C5.11441791,16.5223881 4.43283582,17.2039925 4.43283582,18.0447761 C4.43283582,18.8855597 5.11441791,19.5671642 5.95522388,19.5671642 C6.25728358,19.5671642 6.53856716,19.4788433 6.7753209,19.3270746 C6.78326866,19.3335448 6.79108209,19.3401716 6.79956716,19.346194 C8.32526866,20.4281194 10.1235672,21 12,21 C13.2147985,21 14.3934627,20.7619701 15.5033284,20.2925373 C16.5751119,19.8392015 17.5375746,19.1903507 18.3639627,18.3639627 C19.1903507,17.5375746 19.8392015,16.5751119 20.2925373,15.5033284 C20.7619701,14.3934627 21,13.2147761 21,12 C21,10.9195746 20.8102836,9.86254478 20.4361119,8.85826119 Z M18,5.32835821 C18.3456493,5.32835821 18.6268657,5.60957463 18.6268657,5.95522388 C18.6268657,6.30087313 18.3456493,6.58208955 18,6.58208955 C17.6543507,6.58208955 17.3731343,6.30087313 17.3731343,5.95522388 C17.3731343,5.60957463 17.6543507,5.32835821 18,5.32835821 Z M4.44501493,14.8134851 C4.11011194,13.9145597 3.94029851,12.9679478 3.94029851,12 C3.94029851,7.55585821 7.55585821,3.94029851 12,3.94029851 C13.6541642,3.94029851 15.2400448,4.43668657 16.5919925,5.37597761 C16.5184478,5.55456716 16.4776119,5.75010448 16.4776119,5.95522388 C16.4776119,6.79600746 17.159194,7.47761194 18,7.47761194 C18.8407836,7.47761194 19.5223881,6.79600746 19.5223881,5.95522388 C19.5223881,5.1144403 18.8407836,4.43283582 18,4.43283582 C17.7084403,4.43283582 17.4360896,4.51493284 17.2046194,4.65707463 C17.2031642,4.65602239 17.2019104,4.65483582 17.2004552,4.65380597 C15.6747537,3.5718806 13.8764328,3 12,3 C10.7852239,3 9.60653731,3.23802985 8.49667164,3.70746269 C7.42491045,4.16077612 6.46244776,4.80964925 5.6360597,5.63603731 C4.80967164,6.46242537 4.16079851,7.42488806 3.70748507,8.49664925 C3.23802985,9.60651493 3,10.7852015 3,12 C3,13.0804254 3.18971642,14.1374552 3.56388806,15.1417388 C3.63438806,15.3309851 3.81378358,15.4478955 4.00450746,15.4478955 C4.05902239,15.4478955 4.1145,15.4383358 4.16856716,15.4181866 C4.4118806,15.3275373 4.53566418,15.0567985 4.44501493,14.8134851" id="path-1"></path>
    </defs>
    <g id="Assets" stroke="none" stroke-width="1" fill="none" fill-rule="evenodd">
        <g transform="translate(-179.000000, -150.000000)" id="Sidecar">
            <g transform="translate(179.000000, 150.000000)">
                <rect id="Grid" x="0" y="0" width="24" height="24"></rect>
                <mask id="mask-2" sketch:name="Sidecar" fill="white">
                    <use xlink:href="#path-1"></use>
                </mask>
                <use fill="#212121" xlink:href="#path-1"></use>
            </g>
        </g>
    </g>
</svg>