<?xml version="1.0" encoding="UTF-8" standalone="no"?>
<svg width="24px" height="24px" viewBox="0 0 24 24" version="1.1" xmlns="http://www.w3.org/2000/svg" xmlns:xlink="http://www.w3.org/1999/xlink" xmlns:sketch="http://www.bohemiancoding.com/sketch/ns">
    <!-- Generator: Sketch 3.2.2 (9983) - http://www.bohemiancoding.com/sketch -->
    <title>ic-shuttle-24px</title>
    <desc>Created with Sketch.</desc>
    <defs></defs>
    <g id="Assets" stroke="none" stroke-width="1" fill="none" fill-rule="evenodd">
        <g transform="translate(-121.000000, -92.000000)" id="Shuttle">
            <g transform="translate(121.000000, 92.000000)">
                <rect id="Grid" x="0" y="0" width="24" height="24"></rect>
                <path d="M19,14.5 C19,14.7765 18.7755,15 18.5,15 L15.499,15 C15.2225,15 14.999,14.7765 14.999,14.5 C14.999,13.948 15.4465,13.5 15.999,13.5 L18.5,13.5 C18.7755,13.5 19,13.7235 19,14 L19,14.5 Z M8.501,15 L5.5,15 C5.2245,15 5,14.7765 5,14.5 L5,14 C5,13.7235 5.2245,13.5 5.5,13.5 L8.001,13.5 C8.5545,13.5 9.001,13.948 9.001,14.5 C9.001,14.7765 8.7775,15 8.501,15 L8.501,15 Z M19.6185,10 L18.9335,5.6665 C18.4005,3 16.133,3 14,3 L10,3 C7.866,3 5.5995,3 5.0665,5.6665 L4.3865,10 L3,10 C2.4475,10 2,10.4475 2,11 C2,11.2765 2.2235,11.5 2.5,11.5 L4.1515,11.5 L4,12.467 L4,17 C4,18.5 5,18.5 5,18.5 L5,19.4005 C5,19.4005 5,21 6.5,21 C8,21 8,19.4005 8,19.4005 L8,18.5 L16,18.5 L16,19.4005 C16,19.4005 16,21 17.5,21 C19,21 19,19.4005 19,19.4005 L19,18.5 C19,18.5 20,18.5 20,17 L20,12.411 L19.856,11.5 L21.5,11.5 C21.7765,11.5 22,11.2765 22,11 C22,10.4475 21.5525,10 21,10 L19.6185,10 Z M6.34812151,5.98721009 C6.43200167,5.44198901 6.94483697,5 7.49557752,5 L16.5044229,5 C17.0542652,5 17.5687344,5.44677132 17.6518788,5.98721009 L18.3481214,10.5127899 C18.4320015,11.058011 18.0525103,11.5 17.5014974,11.5 L6.4985023,11.5 C5.94704471,11.5 5.56873404,11.0532287 5.65187847,10.5127899 L6.34812151,5.98721009 Z" fill="#212121"></path>
            </g>
        </g>
    </g>
</svg>