<?xml version="1.0" encoding="UTF-8" standalone="no"?>
<svg width="24px" height="24px" viewBox="0 0 24 24" version="1.1" xmlns="http://www.w3.org/2000/svg" xmlns:xlink="http://www.w3.org/1999/xlink" xmlns:sketch="http://www.bohemiancoding.com/sketch/ns">
    <!-- Generator: Sketch 3.2.2 (9983) - http://www.bohemiancoding.com/sketch -->
    <title>ic-taxi-24px</title>
    <desc>Created with Sketch.</desc>
    <defs></defs>
    <g id="Assets" stroke="none" stroke-width="1" fill="none" fill-rule="evenodd">
        <g transform="translate(-34.000000, -150.000000)" id="Taxi">
            <g transform="translate(34.000000, 150.000000)">
                <rect id="Grid" x="0" y="0" width="24" height="24"></rect>
                <path d="M13.1645609,14.9030125 L13.1976967,15 L11.9462572,15 L11.5316699,13.6638655 L9.48176583,13.6638655 L9.05182342,15 L7.83877159,15 L9.91170825,9 L11.1477927,9 L13.1645609,14.9030125 L15.0172745,11.8571429 L13.2514395,9 L14.6487524,9 L15.7236084,10.9159664 L16.8368522,9 L18.1573896,9 L16.3992322,11.8655462 L18.3109405,15 L16.8752399,15 L15.6775432,12.9243697 L14.4568138,15 L13.1055662,15 L13.1645609,14.9030125 L13.1645609,14.9030125 Z M23.0946207,8.67890909 C22.9804138,7.756 22.1354483,7 21.2168276,7 L2.78317241,7 C1.86455172,7 1.01958621,7.756 0.90537931,8.67890909 L0,17 L24,17 L23.0946207,8.67890909 Z M5.64299424,10.1092437 L5.64299424,15 L6.84836852,15 L6.84836852,10.1092437 L8.49136276,10.1092437 L8.49136276,9 L4,9 L4,10.1092437 L5.64299424,10.1092437 Z M18.7946257,9 L18.7946257,15 L20,15 L20,9 L18.7946257,9 Z M9.79654511,12.6806723 L10.5105566,10.4789916 L10.5259117,10.4789916 L11.2168906,12.6806723 L9.79654511,12.6806723 Z" fill="#212121"></path>
            </g>
        </g>
    </g>
</svg>