<?xml version="1.0" encoding="UTF-8" standalone="no"?>
<svg width="24px" height="24px" viewBox="0 0 24 24" version="1.1" xmlns="http://www.w3.org/2000/svg" xmlns:xlink="http://www.w3.org/1999/xlink" xmlns:sketch="http://www.bohemiancoding.com/sketch/ns">
    <!-- Generator: Sketch 3.2.2 (9983) - http://www.bohemiancoding.com/sketch -->
    <title>ic-toll-24px</title>
    <desc>Created with Sketch.</desc>
    <defs></defs>
    <g id="Assets" stroke="none" stroke-width="1" fill="none" fill-rule="evenodd">
        <g transform="translate(-150.000000, -150.000000)" id="Toll">
            <g transform="translate(150.000000, 150.000000)">
                <rect id="Grid" x="0" y="0" width="24" height="24"></rect>
                <path d="M21,12 C21,16.9708125 16.97025,21 12,21 C7.02975,21 3,16.9708125 3,12 C3,7.0291875 7.02975,3 12,3 C16.97025,3 21,7.0291875 21,12 Z M12.5553563,16.3720875 L12.5553563,17.1157125 C12.5553563,17.38965 12.3202313,17.624775 12.0322313,17.624775 C11.7200438,17.624775 11.4843563,17.38965 11.4843563,17.1157125 L11.4843563,16.3720875 C10.4133563,16.2933375 9.26416875,15.8889 8.76860625,15.2617125 C8.67691875,15.14415 8.62516875,15.01365 8.62516875,14.857275 C8.62516875,14.4652125 8.95141875,14.1130875 9.34235625,14.1130875 C9.49873125,14.1130875 9.64329375,14.1654 9.77379375,14.256525 C10.2299813,14.6080875 10.8054188,14.89665 11.4843563,14.9883375 L11.4843563,12.4942125 C10.1388563,12.1544625 8.71629375,11.6707125 8.71629375,9.9607125 C8.71629375,8.629275 9.78729375,7.5712125 11.4843563,7.4283375 L11.4843563,6.644775 C11.4843563,6.3708375 11.7200438,6.1357125 12.0322313,6.1357125 C12.3202313,6.1357125 12.5553563,6.3708375 12.5553563,6.644775 L12.5553563,7.4418375 C13.3771688,7.5329625 14.3435438,7.8198375 14.8132313,8.3812125 C14.9049188,8.485275 14.9572313,8.629275 14.9572313,8.773275 C14.9572313,9.189525 14.5916063,9.5039625 14.2001063,9.5039625 C14.1084188,9.5039625 14.0172938,9.4780875 13.9261688,9.439275 C13.4941688,9.20415 13.0250438,8.9425875 12.5553563,8.8514625 L12.5553563,11.070525 C13.8997313,11.4367125 15.3751688,11.9463375 15.3751688,13.6957125 C15.3751688,15.0400875 14.5010438,16.189275 12.5553563,16.3720875 Z M12.5553563,12.7822125 L12.5553563,14.9883375 C13.4294813,14.857275 13.7827313,14.3482125 13.7827313,13.8509625 C13.7827313,13.264275 13.2466688,12.989775 12.5553563,12.7822125 Z M11.4843563,8.7862125 C10.7654813,8.8644 10.3092938,9.2688375 10.3092938,9.84315 C10.3092938,10.3533375 10.8054188,10.600275 11.4843563,10.79715 L11.4843563,8.7862125 Z" fill="#212121"></path>
            </g>
        </g>
    </g>
</svg>