<?xml version="1.0" encoding="UTF-8" standalone="no"?>
<svg width="24px" height="24px" viewBox="0 0 24 24" version="1.1" xmlns="http://www.w3.org/2000/svg" xmlns:xlink="http://www.w3.org/1999/xlink" xmlns:sketch="http://www.bohemiancoding.com/sketch/ns">
    <!-- Generator: Sketch 3.2.2 (9983) - http://www.bohemiancoding.com/sketch -->
    <title>ic-train-realtime-24px</title>
    <desc>Created with Sketch.</desc>
    <defs></defs>
    <g id="Assets" stroke="none" stroke-width="1" fill="none" fill-rule="evenodd">
        <g transform="translate(-208.000000, -92.000000)" id="Train---Realtime">
            <g transform="translate(208.000000, 92.000000)">
                <rect id="Grid" x="0" y="0" width="24" height="24"></rect>
                <path d="M12.7912236,13 L16.9975267,13 C17.544239,13 18,12.553384 18,12.0024554 L18,4.99754465 C18,4.4463114 17.5511774,4 16.9975267,4 L7.00247329,4 C6.45576096,4 6,4.44661595 6,4.99754465 L6,12.0024554 C6,12.5536886 6.44882258,13 7.00247329,13 L11.157943,13 C11.1469968,12.9461435 11.14125,12.8904055 11.14125,12.8333333 C11.14125,12.3733333 11.5145833,12 11.9745833,12 C12.4345833,12 12.8079167,12.3733333 12.8079167,12.8333333 C12.8079167,12.8904055 12.8021698,12.9461435 12.7912236,13 L12.7912236,13 Z M4,4.49192389 C4,2.56338758 5.56327939,1 7.49149665,1 L16.5085033,1 C18.4368037,1 20,2.56589374 20,4.49192389 L20,15.5080761 C20,17.4366124 18.4367206,19 16.5085033,19 L7.49149665,19 C5.5631963,19 4,17.4341063 4,15.5080761 L4,4.49192389 Z M11.9745833,7 C10.1283333,7 8.48541667,7.86 7.41666667,9.19833333 L8.35458333,10.0320833 C9.19375,8.95041667 10.5025,8.25 11.9745833,8.25 C13.4466667,8.25 14.7554167,8.95041667 15.5945833,10.0320833 L16.5325,9.19833333 C15.46375,7.86 13.8208333,7 11.9745833,7 Z M11.9745833,9.5 C10.8716667,9.5 9.89666667,10.0379167 9.29,10.8633333 L10.2308333,11.7 C10.6029167,11.1295833 11.2441667,10.75 11.9745833,10.75 C12.705,10.75 13.34625,11.1295833 13.7183333,11.7 L14.6591667,10.8633333 C14.0525,10.0379167 13.0775,9.5 11.9745833,9.5 Z M17,16.5 C16.4475,16.5 16,16.0525 16,15.5 C16,14.9475 16.4475,14.5 17,14.5 C17.5525,14.5 18,14.9475 18,15.5 C18,16.0525 17.5525,16.5 17,16.5 L17,16.5 Z M7,16.5 C6.4475,16.5 6,16.0525 6,15.5 C6,14.9475 6.4475,14.5 7,14.5 C7.5525,14.5 8,14.9475 8,15.5 C8,16.0525 7.5525,16.5 7,16.5 Z M6,20 L3,24 L4.5,24 L7.5,20 L6,20 Z M16.5,20 L19.5,24 L21,24 L18,20 L16.5,20 Z M15.75,21 L8.25000002,21 L9,20 L15,20 L15.75,21 L15.75,21 Z M16.5,22 L7.50000002,22 L6.75000001,23 L17.25,23 L16.5,22 Z M9,2.5 C9,2.22385763 9.22788048,2 9.49100518,2 L14.5089948,2 C14.7801695,2 15,2.23193359 15,2.5 C15,2.77614237 14.7721195,3 14.5089948,3 L9.49100518,3 C9.21983051,3 9,2.76806641 9,2.5 Z" fill="#212121"></path>
            </g>
        </g>
    </g>
</svg>