<?xml version="1.0" encoding="UTF-8" standalone="no"?>
<svg width="24px" height="24px" viewBox="0 0 24 24" version="1.1" xmlns="http://www.w3.org/2000/svg" xmlns:xlink="http://www.w3.org/1999/xlink" xmlns:sketch="http://www.bohemiancoding.com/sketch/ns">
    <!-- Generator: Sketch 3.2.2 (9983) - http://www.bohemiancoding.com/sketch -->
    <title>ic-train-24px</title>
    <desc>Created with Sketch.</desc>
    <defs></defs>
    <g id="Assets" stroke="none" stroke-width="1" fill="none" fill-rule="evenodd">
        <g transform="translate(-179.000000, -92.000000)" id="Train">
            <g transform="translate(179.000000, 92.000000)">
                <rect id="Grid" x="0" y="0" width="24" height="24"></rect>
                <path d="M4,4.49192389 C4,2.56338758 5.56327939,1 7.49149665,1 L16.5085033,1 C18.4368037,1 20,2.56589374 20,4.49192389 L20,15.5080761 C20,17.4366124 18.4367206,19 16.5085033,19 L7.49149665,19 C5.5631963,19 4,17.4341063 4,15.5080761 L4,4.49192389 Z M6,4.99754465 C6,4.44661595 6.45576096,4 7.00247329,4 L16.9975267,4 C17.5511774,4 18,4.4463114 18,4.99754465 L18,12.0024554 C18,12.553384 17.544239,13 16.9975267,13 L7.00247329,13 C6.44882258,13 6,12.5536886 6,12.0024554 L6,4.99754465 Z M17,16.5 C16.4475,16.5 16,16.0525 16,15.5 C16,14.9475 16.4475,14.5 17,14.5 C17.5525,14.5 18,14.9475 18,15.5 C18,16.0525 17.5525,16.5 17,16.5 L17,16.5 Z M7,16.5 C6.4475,16.5 6,16.0525 6,15.5 C6,14.9475 6.4475,14.5 7,14.5 C7.5525,14.5 8,14.9475 8,15.5 C8,16.0525 7.5525,16.5 7,16.5 Z M6,20 L3,24 L4.5,24 L7.5,20 L6,20 Z M16.5,20 L19.5,24 L21,24 L18,20 L16.5,20 Z M15.75,21 L8.25000002,21 L9,20 L15,20 L15.75,21 L15.75,21 Z M16.5,22 L7.50000002,22 L6.75000001,23 L17.25,23 L16.5,22 Z M9,2.5 C9,2.22385763 9.22788048,2 9.49100518,2 L14.5089948,2 C14.7801695,2 15,2.23193359 15,2.5 C15,2.77614237 14.7721195,3 14.5089948,3 L9.49100518,3 C9.21983051,3 9,2.76806641 9,2.5 Z" fill="#212121"></path>
            </g>
        </g>
    </g>
</svg>