<?xml version="1.0" encoding="UTF-8" standalone="no"?>
<svg height="22px" viewBox="0 0 9 12" version="1.1" xmlns="http://www.w3.org/2000/svg" xmlns:xlink="http://www.w3.org/1999/xlink" xmlns:sketch="http://www.bohemiancoding.com/sketch/ns">
    <!-- Generator: Sketch 3.4.4 (17249) - http://www.bohemiancoding.com/sketch -->
    <title>ic-wheelchair</title>
    <desc>Created with Sketch.</desc>
    <defs></defs>
    <g id="Assets" stroke="none" stroke-width="1" fill="none" fill-rule="evenodd">
        <g transform="translate(-60.000000, -501.000000)" id="icon-wheelchair" fill="#212121">
            <g transform="translate(60.000000, 501.000000)">
                <path d="M5.84427733,10.7509756 C5.25287076,11.3667399 4.42119298,11.75 3.5,11.75 C1.70507456,11.75 0.25,10.2949254 0.25,8.5 C0.25,7.38713009 0.809346887,6.40490264 1.66224006,5.81911826 L2.05457156,7.46401315 C2.05745816,7.47611553 2.06045129,7.48816999 2.06354983,7.50017564 C1.86590581,7.78360077 1.75,8.12826476 1.75,8.5 C1.75,9.46649831 2.53350169,10.25 3.5,10.25 C4.25277391,10.25 4.8945358,9.77470105 5.1415545,9.10783433 L5.84427733,10.7509756 Z M3.02728578,7.23200657 C3.13485755,7.68301355 3.53833971,8.00092395 4.00199704,7.99999801 L5.64313501,7.99521252 L6.84675674,10.5519381 C7.06621967,11.0587462 7.65497868,11.2916855 8.1617868,11.0722226 C8.66859492,10.8527596 8.90153421,10.2640006 8.68207128,9.75719252 L7.31397875,6.59784165 C7.15527301,6.23134078 6.79371116,5.99441884 6.39432443,5.99521643 L4.79489773,5.99521634 L4.49454352,4.76320786 C4.36640983,4.22599263 3.82703796,3.89436652 3.28982273,4.02250022 C2.7526075,4.15063391 2.4209814,4.69000578 2.54911509,5.22722101 L3.02728578,7.23200657 Z M3.5,3.5 C4.32842712,3.5 5,2.82842712 5,2 C5,1.17157288 4.32842712,0.5 3.5,0.5 C2.67157288,0.5 2,1.17157288 2,2 C2,2.82842712 2.67157288,3.5 3.5,3.5 Z"></path>
            </g>
        </g>
    </g>
</svg>