<?xml version="1.0" encoding="UTF-8" standalone="no"?>
<svg width="24px" height="24px" viewBox="0 0 24 24" version="1.1" xmlns="http://www.w3.org/2000/svg" xmlns:xlink="http://www.w3.org/1999/xlink" xmlns:sketch="http://www.bohemiancoding.com/sketch/ns">
    <!-- Generator: Sketch 3.2.2 (9983) - http://www.bohemiancoding.com/sketch -->
    <title>ic-motorbike-24px</title>
    <desc>Created with Sketch.</desc>
    <defs></defs>
    <g id="Assets" stroke="none" stroke-width="1" fill="none" fill-rule="evenodd">
        <g transform="translate(-267.000000, -121.000000)" id="Motorbike">
            <g transform="translate(267.000000, 121.000000)">
                <rect id="Grid" x="0" y="0" width="24" height="24"></rect>
                <path d="M4.79147704,18.1900863 C3.75398516,18.1900863 2.91295286,17.3370304 2.91295286,16.2858808 C2.91295286,15.2343397 3.75398516,14.3820668 4.79147704,14.3820668 C5.26853804,14.3820668 5.92083019,14.7594628 6.25315181,15.0581693 C6.38708398,15.1791396 6.1906244,15.14508 6.01114756,15.146646 C5.5062966,15.1529098 4.06546431,14.9759565 4.06546431,16.2807914 C4.06546431,17.6247753 6.29483675,17.257558 6.29483675,17.257558 C6.29483675,17.257558 6.40406674,17.295924 6.35311848,17.3581708 C6.00805979,17.7872435 5.37776803,18.1900863 4.79147704,18.1900863 M4.75326585,13.2616235 C3.10671064,13.2616235 1.77317848,14.6157861 1.77317848,16.2858808 C1.77317848,17.9559755 3.10671064,19.3105296 4.75326585,19.3105296 C6.40020702,19.3105296 7.73528308,17.9559755 7.73528308,16.2858808 C7.73528308,14.6157861 6.40020702,13.2616235 4.75326585,13.2616235 Z M16.0419727,17.6506527 C16.0419727,17.6506527 14.6254566,17.9865508 12.7515641,17.9865508 C10.8768996,17.9865508 8.91346164,17.6506527 8.91346164,17.6506527 C8.91346164,17.6506527 9.33494272,14.7465827 7.3560659,13.0158071 C5.55049036,11.4369295 1.55568343,10.420231 1.55568343,10.420231 C1.55568343,10.420231 2.01113002,9.53233253 2.65801856,9.26846852 C3.30567905,9.00656197 5.96309409,9.26846852 5.96309409,9.26846852 C5.96309409,9.26846852 6.41390902,10.3759927 7.5154722,11.1002484 C8.61780733,11.8229383 10.0370252,11.286206 10.6576677,10.3368437 C11.2775382,9.38748137 11.7349146,8.90634063 13.4432253,8.90634063 C15.151536,8.90634063 15.8482149,10.4848268 15.8482149,10.4848268 C15.8482149,10.4848268 17.4368743,11.0109888 17.9533044,10.4848268 C18.4728223,9.95983919 18.1817997,8.64365109 18.1817997,8.64365109 L17.046271,7.5271227 L16.8849348,6.31076446 C16.8849348,6.31076446 20.1575887,8.87541295 20.385698,9.33580474 C20.6114914,9.79580504 20.7083703,10.156367 20.7415639,10.550597 C20.7732136,10.9452186 20.6114914,11.3731167 20.6114914,11.3731167 L17.4704539,14.037595 C17.4704539,14.037595 16.6591414,14.7266168 16.3978386,15.4821917 C16.1396235,16.2377667 16.0419727,17.6506527 16.0419727,17.6506527 Z M15.0450078,8.19946697 L16.2940122,8.2061223 L17.4445938,9.33126346 C17.4445938,9.33126346 17.3357497,9.76033608 17.1072545,9.81827654 C16.8768294,9.87778296 16.5908244,9.84763826 16.5908244,9.84763826 L15.0450078,8.19946697 Z M2.81526343,11.8535919 L1.63341813,13.2837035 L1.0000386,12.6126903 L2.01128441,11.2702724 L2.81526343,11.8535919 Z M19.9096019,15.0631413 L19.0654819,13.659651 L17.2440815,15.5317543 C17.2440815,15.5317543 17.0974122,15.6773885 17.0896928,15.713797 C17.0553413,15.8985801 17.0364287,16.0908015 17.0364287,16.2857633 C17.0364287,17.9562495 18.3718907,19.3108036 20.01806,19.3108036 C21.6650011,19.3108036 23.0000772,17.9562495 23.0000772,16.2857633 C23.0000772,15.5575926 22.7453359,14.8881454 22.3223109,14.3666812 C22.2752224,14.3106982 22.1559571,14.3126557 22.1559571,14.3126557 L20.7656871,14.2969961 C20.7656871,14.2969961 21.0609555,14.5181877 21.0987807,14.5420686 C21.6704047,14.9065454 22.0502009,15.5513288 22.0502009,16.2857633 C22.0502009,17.4234322 21.1404656,18.3446072 20.0192179,18.3446072 C18.8979701,18.3446072 17.9886209,17.4234322 17.9886209,16.2857633 C17.9886209,15.7596013 18.1839225,15.278852 18.5058229,14.9139837 C18.5563852,14.8580007 19.0315163,15.3869032 19.0315163,15.3869032 C19.0315163,15.3869032 18.3668731,16.2293888 18.8975842,16.9924021 C19.2708188,17.5299173 20.0913946,17.6571515 20.603193,17.2899342 C21.2060808,16.8561637 21.2975561,16.1189888 21.0528501,15.71458 C20.6908086,15.1144264 19.9096019,15.0631413 19.9096019,15.0631413 Z M22.7060054,13.7963591 C22.7060054,13.7963591 20.6236881,13.745074 20.4237548,13.7149293 C19.7409709,13.613925 19.5533887,13.2470992 19.5533887,13.2470992 C19.5533887,13.2470992 19.9331848,12.4512008 20.6997246,12.5110987 C21.4674222,12.5706052 22.7060054,13.7963591 22.7060054,13.7963591 Z" fill="#212121"></path>
            </g>
        </g>
    </g>
</svg>