<?xml version="1.0" encoding="UTF-8" standalone="no"?>
<svg width="24px" height="24px" viewBox="0 0 24 24" version="1.1" xmlns="http://www.w3.org/2000/svg" xmlns:xlink="http://www.w3.org/1999/xlink" xmlns:sketch="http://www.bohemiancoding.com/sketch/ns">
    <!-- Generator: Sketch 3.2.2 (9983) - http://www.bohemiancoding.com/sketch -->
    <title>ic-walk-24px</title>
    <desc>Created with Sketch.</desc>
    <defs></defs>
    <g id="Assets" stroke="none" stroke-width="1" fill="none" fill-rule="evenodd">
        <g transform="translate(-92.000000, -150.000000)" id="Walk">
            <g transform="translate(92.000000, 150.000000)">
                <rect id="Grid" x="0" y="0" width="24" height="24"></rect>
                <path d="M9.1411885,13.1529044 L5.44155738,20.2150242 C5.44155738,20.2150242 4.73281729,21.4205567 5.75576941,21.8598917 C6.78146403,22.2984988 7.25278206,21.5676083 7.25278206,21.5676083 L10.8744479,15.0936952 L13.8296864,21.1654002 C13.8296864,21.1654002 14.340183,22.3727526 15.5214165,21.8227648 C16.7030418,21.2764169 16.1514077,20.3598919 16.1514077,20.3598919 L12.5273912,12.8981119 L13.6545583,9.72012157 L14.7319686,10.8131814 L17.4619304,11.9550157 C17.4619304,11.9550157 18.7704942,12.451861 18.9542416,11.5335161 C19.1395562,10.6177191 18.7023235,10.3680225 18.7023235,10.3680225 L16.2462198,9.22291223 L13.673364,6.2320124 C13.673364,6.2320124 11.6043444,5.59175527 11.1216646,5.75045459 C10.7686658,5.8654752 7.6590637,7.74001994 7.6590637,7.74001994 C7.6590637,7.74001994 6.86178007,8.1724392 6.7277894,8.34169421 C6.61887301,8.47782619 6.51818412,8.62888174 6.51818412,8.62888174 L5.00001504,11.638345 C5.00001504,11.638345 5.12773714,12.2909778 5.74362405,12.487532 C6.37126453,12.6851782 6.76383367,12.7627079 7.09567605,12.2931617 C7.73389474,11.3791847 8.22989527,9.84897377 8.22989527,9.84897377 L9.93181178,8.71150731 C9.93181178,8.71150731 9.36176378,11.8043241 9.40681912,12.2462071 C9.45030732,12.6888181 9.1411885,13.1529044 9.1411885,13.1529044 Z M13.5988961,1.5 C14.7060821,1.5 15.6020957,2.39493782 15.6020957,3.49784588 C15.6020957,4.60349554 14.7060821,5.5 13.5988961,5.5 C12.4948443,5.5 11.6000061,4.60349554 11.6000061,3.49784588 C11.6000061,2.39493782 12.4948443,1.5 13.5988961,1.5 Z" fill="#212121"></path>
            </g>
        </g>
    </g>
</svg>