<?xml version="1.0" encoding="UTF-8" standalone="no"?>
<svg width="24px" height="24px" viewBox="0 0 24 24" version="1.1" xmlns="http://www.w3.org/2000/svg" xmlns:xlink="http://www.w3.org/1999/xlink" xmlns:sketch="http://www.bohemiancoding.com/sketch/ns">
    <!-- Generator: Sketch 3.2.2 (9983) - http://www.bohemiancoding.com/sketch -->
    <title>ic-car-24px</title>
    <desc>Created with Sketch.</desc>
    <defs></defs>
    <g id="Assets" stroke="none" stroke-width="1" fill="none" fill-rule="evenodd">
        <g transform="translate(-296.000000, -121.000000)" id="Car">
            <g transform="translate(296.000000, 121.000000)">
                <rect id="Grid" x="0" y="0" width="24" height="24"></rect>
                <path d="M19.6999969,13.5 C18.5954969,13.5 17.6999969,14.3945 17.6999969,15.5 C17.6999969,16.6035 18.5954969,17.5 19.6999969,17.5 C20.8044969,17.5 21.6999969,16.6035 21.6999969,15.5 C21.6999969,14.3945 20.8044969,13.5 19.6999969,13.5 Z M16.7142857,10.3333333 L13.8917143,7.58916667 C13.557,7.26375 12.9017143,7 12.4285714,7 L3.42857143,7 C2.89971429,7 2.27657143,7.37291667 2.04,7.83416667 L0.214285714,11.2804167 C0.0955714286,11.5120833 0,11.9079167 0,12.165 L0,14.2991667 C0,14.55625 0.150857143,14.91375 0.338142857,15.0958333 L0.619285714,15.37 C0.807,15.5520833 1.17342857,15.7166667 1.43742857,15.73875 C1.43742857,15.73875 1.49914286,15.7433333 1.57542857,15.7491667 C1.65214286,15.7558333 1.71428571,15.6679167 1.71428571,15.5520833 L1.71428571,15.3333333 C1.71428571,13.9525 2.86542857,12.8333333 4.28571429,12.8333333 C5.70514286,12.8333333 6.85714286,13.9525 6.85714286,15.3333333 L6.85714231,15.552083 C6.85714231,15.7824997 7.04871374,15.9687497 7.28571374,15.9687497 L16.7142852,15.9687497 C16.9512852,15.9687497 17.1428566,15.7824997 17.1428566,15.552083 L17.1428571,15.3333333 C17.1428571,13.9525 18.294,12.8333333 19.7142857,12.8333333 C21.1341429,12.8333333 22.2857143,13.9525 22.2857143,15.3333333 L22.2857143,15.8354167 C22.2857143,15.9508333 22.3367143,16.0275 22.3988571,16.00375 C22.4378571,15.9891667 22.4747143,15.9729167 22.5085714,15.9566667 L23.5714286,15.4416667 C23.8084286,15.3266667 24,15.025 24,14.7654167 L24,13.2825 C24,13.0258333 23.9314286,12.6175 23.8491429,12.3729167 L23.3421429,11.6216667 C23.1972857,11.4075 22.8664286,11.2033333 22.6028571,11.1658333 L16.7142857,10.3333333 Z M4.30000305,13.5 C3.19550305,13.5 2.30000305,14.3945 2.30000305,15.5 C2.30000305,16.6035 3.19550305,17.5 4.30000305,17.5 C5.40450305,17.5 6.30000305,16.6035 6.30000305,15.5 C6.30000305,14.3945 5.40450305,13.5 4.30000305,13.5 Z M7.50000001,11 C7.3678644,11 7.26148808,10.9044286 7.26148808,10.7857143 L7.26148808,8.21428571 C7.26148808,8.09642857 7.3678644,8 7.50000001,8 L11.7702387,8 C12.0340329,8 12.3860765,8.14571429 12.5573281,8.32571429 L14.9538961,10.8375714 C15.0397604,10.9271429 15.0020755,11 14.8708939,11 L7.50000001,11 Z M6,10.7857143 C6,10.9044286 5.9085435,11 5.79676334,11 L2.13850337,11 C2.02591026,11 1.97103636,10.9121429 2.01534195,10.8037143 L2.99412973,8.39428571 C3.08233444,8.177 3.33638027,8 3.56116002,8 L5.79676334,8 C5.9085435,8 6,8.09642857 6,8.21428571 L6,10.7857143 Z" fill="#212121"></path>
            </g>
        </g>
    </g>
</svg>