<?xml version="1.0" encoding="UTF-8" standalone="no"?>
<svg width="24px" height="24px" viewBox="0 0 24 24" version="1.1" xmlns="http://www.w3.org/2000/svg" xmlns:xlink="http://www.w3.org/1999/xlink" xmlns:sketch="http://www.bohemiancoding.com/sketch/ns">
    <!-- Generator: Sketch 3.2.2 (9983) - http://www.bohemiancoding.com/sketch -->
    <title>ic-bus-school-24px</title>
    <desc>Created with Sketch.</desc>
    <defs></defs>
    <g id="Assets" stroke="none" stroke-width="1" fill="none" fill-rule="evenodd">
        <g transform="translate(-92.000000, -92.000000)" id="Bus---School">
            <g transform="translate(92.000000, 92.000000)">
                <rect id="Grid" x="0" y="0" width="24" height="24"></rect>
                <path d="M18.75,16.3513523 C18.0595,16.3513523 17.5,15.7757037 17.5,15.0675687 C17.5,14.3584067 18.0595,13.7837851 18.75,13.7837851 C19.4405,13.7837851 20,14.3584067 20,15.0675687 C20,15.7757037 19.4405,16.3513523 18.75,16.3513523 L18.75,16.3513523 Z M17,12.2432448 C17,12.2432448 16.999,10.7114343 15.5115,10.7032181 L8.4765,10.7032181 C8.2915,10.7104072 7,10.8120829 7,12.2432448 L7,12.2422178 L6,12.2422178 L6,7.61802937 C6.052,6.76919168 6.7655,6.08108368 7.5935,6.08108368 L16.406,6.08108368 C17.2345,6.08108368 17.948,6.76919168 18,7.61802937 L18,12.2422178 L17,12.2422178 L17,12.2432448 Z M15,14.2972986 L9,14.2972986 C8.725,14.2972986 8.5,14.065704 8.5,13.7837851 C8.5,13.5013527 8.725,13.2702717 9,13.2702717 L15,13.2702717 C15.275,13.2702717 15.5,13.5013527 15.5,13.7837851 C15.5,14.065704 15.275,14.2972986 15,14.2972986 L15,14.2972986 Z M15,16.3513523 L9,16.3513523 C8.725,16.3513523 8.5,16.1197577 8.5,15.8378388 C8.5,15.5554065 8.725,15.3243254 9,15.3243254 L15,15.3243254 C15.275,15.3243254 15.5,15.5554065 15.5,15.8378388 C15.5,16.1197577 15.275,16.3513523 15,16.3513523 L15,16.3513523 Z M5.25,16.3513523 C4.5595,16.3513523 4,15.7757037 4,15.0675687 C4,14.3584067 4.5595,13.7837851 5.25,13.7837851 C5.9405,13.7837851 6.5,14.3584067 6.5,15.0675687 C6.5,15.7757037 5.9405,16.3513523 5.25,16.3513523 L5.25,16.3513523 Z M9.5,4.02702996 L14.5,4.02702996 C14.5,4.02702996 15,4.02702996 15,4.54054339 C15,5.05405682 14.5,5.05405682 14.5,5.05405682 L9.5,5.05405682 C9.5,5.05405682 9,5.05405682 9,4.54054339 C9,4.02702996 9.5,4.02702996 9.5,4.02702996 L9.5,4.02702996 Z M19.5,12.2422178 C19.5,12.2391367 19.4995,11.8447584 19.4855,11.216218 L20,11.216218 C20.275,11.216218 20.5,10.9846234 20.5,10.7027045 L20.5,8.1351374 C20.5,7.85270501 20.275,7.62162397 20,7.62162397 L19.3035,7.62162397 C19.248,6.93402949 19.177,6.23411068 19.084,5.56757025 C18.7235,2.9845977 16.378,3.0000031 11.998,3.0000031 C7.6425,3.0000031 5.2275,2.98254364 4.878,5.56757025 C4.7905,6.21459717 4.7235,6.9191376 4.6725,7.62162397 L4,7.62162397 C3.725,7.62162397 3.5,7.85270501 3.5,8.1351374 L3.5,10.7027045 C3.5,10.9846234 3.725,11.216218 4,11.216218 L4.5125,11.216218 C4.5,11.8427044 4.5,12.2391367 4.5,12.2422178 C4.5,12.2422178 3,12.2422178 3,13.7827581 L3,17.3783791 C3,18.9189194 4.5,18.9189194 4.5,18.9189194 L4.5,20.4594597 C4.5,20.4594597 4.5,22 6,22 C7.5,22 7.5,20.4594597 7.5,20.4594597 L7.5,18.9189194 L16.5,18.9189194 L16.5,20.4594597 C16.5,20.4594597 16.5,22 18,22 C19.5,22 19.5,20.4594597 19.5,20.4594597 L19.5,18.9189194 C19.5,18.9189194 21,18.9189194 21,17.3783791 L21,13.7827581 C21,13.7827581 21,12.2422178 19.5,12.2422178 L19.5,12.2422178 Z" fill="#212121"></path>
            </g>
        </g>
    </g>
</svg>