<?xml version="1.0" encoding="UTF-8" standalone="no"?>
<svg width="24px" height="24px" viewBox="0 0 24 24" version="1.1" xmlns="http://www.w3.org/2000/svg" xmlns:xlink="http://www.w3.org/1999/xlink" xmlns:sketch="http://www.bohemiancoding.com/sketch/ns">
    <!-- Generator: Sketch 3.2.2 (9983) - http://www.bohemiancoding.com/sketch -->
    <title>ic-bike-24px</title>
    <desc>Created with Sketch.</desc>
    <defs></defs>
    <g id="Assets" stroke="none" stroke-width="1" fill="none" fill-rule="evenodd">
        <g transform="translate(-209.000000, -121.000000)" id="Bike">
            <g transform="translate(209.000000, 121.000000)">
                <rect id="Grid" x="0" y="0" width="24" height="24"></rect>
                <g transform="translate(0.000000, 5.000000)" fill="#212121">
                    <path d="M19.3846154,13.8285937 C17.472,13.8285937 15.9230769,12.2554687 15.9230769,10.3125 C15.9230769,8.37046875 17.472,6.79734375 19.3846154,6.79734375 C21.2967692,6.79734375 22.8461538,8.37046875 22.8461538,10.3125 C22.8461538,12.2554687 21.2967692,13.8285937 19.3846154,13.8285937 M19.3846154,5.625 C16.836,5.625 14.7692308,7.7240625 14.7692308,10.3125 C14.7692308,12.9009375 16.836,15 19.3846154,15 C21.9332308,15 24,12.9009375 24,10.3125 C24,7.7240625 21.9332308,5.625 19.3846154,5.625" id="Wheel"></path>
                    <path d="M4.61538462,13.8285937 C2.70276923,13.8285937 1.15384615,12.2554687 1.15384615,10.3125 C1.15384615,8.37046875 2.70276923,6.79734375 4.61538462,6.79734375 C6.52753846,6.79734375 8.07692308,8.37046875 8.07692308,10.3125 C8.07692308,12.2554687 6.52753846,13.8285937 4.61538462,13.8285937 M4.61538462,5.625 C2.06676923,5.625 0,7.7240625 0,10.3125 C0,12.9009375 2.06676923,15 4.61538462,15 C7.164,15 9.23076923,12.9009375 9.23076923,10.3125 C9.23076923,7.7240625 7.164,5.625 4.61538462,5.625" id="Wheel2"></path>
                    <path d="M11.6624308,8.93029687 L10.0959692,4.21889062 L14.8756615,4.21889062 L11.6624308,8.93029687 Z M5.43950769,9.84389062 L9.21443077,4.96373437 L10.9036615,9.84389062 L5.43950769,9.84389062 Z M19.3844308,9.84389062 L15.5947385,0.861703125 C15.3935077,0.385921875 14.8175077,0.000140625 14.3075077,0.000140625 L13.3844308,0.000140625 C13.1296615,0.000140625 12.9228923,0.209671875 12.9228923,0.468890625 C12.9228923,0.728109375 13.1296615,0.937640625 13.3844308,0.937640625 L14.0439692,0.937640625 C14.2987385,0.937640625 14.5872,1.13076562 14.6873538,1.36842187 L15.4945846,3.28139062 L9.74981538,3.28139062 L9.40366154,2.34389062 L10.1536615,2.34389062 C10.4088923,2.34389062 10.6152,2.13435937 10.6152,1.87514062 C10.6152,1.61592187 10.4088923,1.40639062 10.1536615,1.40639062 L7.38443077,1.40639062 C7.12966154,1.40639062 6.92289231,1.61592187 6.92289231,1.87514062 C6.92289231,2.13435937 7.12966154,2.34389062 7.38443077,2.34389062 L8.30750769,2.34389062 L8.81704615,3.81623437 L4.43935385,9.47545312 C4.28150769,9.67935937 4.15366154,9.94935937 4.15366154,10.0782656 L4.15366154,10.3126406 C4.15366154,10.5718594 4.36043077,10.7813906 4.6152,10.7813906 L11.0767385,10.7813906 C11.3319692,10.7813906 11.6647385,10.6149844 11.8198154,10.4096719 L15.9842769,4.44248437 L18.4613538,10.3126406 L18.7165846,10.8306094 C18.8305846,11.0631094 19.1079692,11.1563906 19.3359692,11.0406094 L19.4333538,10.9909219 C19.6613538,10.8751406 19.7536615,10.5943594 19.6396615,10.3618594 L19.3844308,9.84389062 Z" id="Frame"></path>
                </g>
            </g>
        </g>
    </g>
</svg>