<?xml version="1.0" encoding="UTF-8" standalone="no"?>
<svg width="33px" height="37px" viewBox="0 0 33 37" version="1.1" xmlns="http://www.w3.org/2000/svg" xmlns:xlink="http://www.w3.org/1999/xlink">
    <!-- Generator: Sketch 3.8.3 (29802) - http://www.bohemiancoding.com/sketch -->
    <title>map-pin</title>
    <desc>Created with Sketch.</desc>
    <defs></defs>
    <g id="web-icons" stroke="none" stroke-width="1" fill="none" fill-rule="evenodd">
        <g id="map-pin">
            <path d="M23.9406866,23.8573192 L23.9211798,23.8759229 L23.9331638,23.8643905 L28.1055284,28.17613 L21.7265837,34.3831947 C18.826236,37.2056388 14.1728468,37.2055858 11.2725464,34.3831879 L4.87627786,28.1589486 C-1.62548866,21.8320898 -1.62542159,11.5218977 4.87640809,5.19515312 C11.3095984,-1.06497444 21.6902761,-1.06505699 28.123423,5.1949412 C34.6232189,11.5197947 34.6278042,21.8300255 28.1359894,28.1468692 C28.1079846,28.1742238 28.1079846,28.1742238 28.0612895,28.2187372 C28.0605716,28.2194121 28.0605716,28.2194121 28.0598613,28.2200794 C28.0423815,28.2364154 28.0423815,28.2364154 28.0380209,28.2404403 C28.036136,28.242191 28.036136,28.242191 28.0358516,28.2424551 L28.0358515,28.2424552 C28.035777,28.2425244 28.035777,28.2425244 28.0356501,28.2426423 L25.9937917,26.0447309 L23.95583,23.843206 C23.9555609,23.8434547 23.9555609,23.8434547 23.9528566,23.845963 L23.9528036,23.8460123 C23.9342505,23.8633781 23.9342505,23.8633781 23.9406866,23.8573192 L23.9406866,23.8573192 Z" fill-opacity="0.2" fill="#000000"></path>
            <path d="M24.6275873,24.5840704 L24.6145828,24.5964729 L24.6265668,24.5849405 L27.4081432,27.4594335 L21.0291673,33.6665286 C18.517029,36.1111906 14.4820611,36.1111447 11.9699499,33.6665092 L5.573679,27.4422676 C-0.52461861,21.5080238 -0.524555752,11.8459787 5.57380925,5.9118341 C11.618801,0.0294619617 21.381084,0.029384333 27.4260268,5.91162702 C33.5224927,11.8440062 33.5267897,21.5060794 27.4383641,27.4304064 C27.4108387,27.4572655 27.4108387,27.4572655 27.3762834,27.4901999 C27.3757545,27.4906971 27.3757545,27.4906971 27.3752307,27.4911891 C27.3621802,27.5033862 27.3621802,27.5033862 27.3574865,27.5077242 C27.3556019,27.5094745 27.3556019,27.5094745 27.3552483,27.509803 L27.3552482,27.509803 C27.35516,27.509885 27.35516,27.509885 27.3550307,27.5100052 L25.9937917,26.0447309 L24.6351506,24.5770477 C24.6350531,24.5771376 24.6350531,24.5771376 24.6333235,24.5787419 L24.6332907,24.5787723 C24.6213372,24.5899616 24.6213372,24.5899616 24.6275873,24.5840704 L24.6275873,24.5840704 Z" fill="#FFFFFF"></path>
            <path class="colourFill" d="M26.0013888,26.0375729 L26.0013888,26.0375729 L26.0013888,26.0375729 L26.0013888,26.0375729 C25.9949466,26.0436619 25.9949466,26.0436619 25.9937917,26.0447309 C25.9942924,26.0442658 25.9942924,26.0442658 25.9964176,26.0422919 C26.0102409,26.0294891 26.0102409,26.0294891 26.0431135,25.9974808 C31.3229697,20.8599301 31.322833,12.4941735 26.0312344,7.34499868 C20.7627232,2.21828988 12.2372297,2.21831187 6.96861156,7.34519606 C1.67717149,12.4941451 1.67712591,20.859896 6.9684813,26.0089057 L13.3647568,32.2331518 C15.1004758,33.9222491 17.898601,33.9223078 19.6343344,32.2331963 L26.0133727,26.0260405 L26.0013888,26.0375729 Z" id="Shape" fill="#d8624d"></path>
            <path class="colourFillDark" d="M12.2574499,12.7574423 C14.6006794,10.4142155 18.3993971,10.4141828 20.7425799,12.757363 C23.0858109,15.1005914 23.0857946,18.8992496 20.7425679,21.2425796 C18.3992831,23.5858088 14.6005747,23.5858088 12.2573189,21.2425556 C9.91418066,18.8993671 9.91422975,15.1006599 12.2574499,12.7574423 L12.2574499,12.7574423 Z" id="Path" fill-opacity="0.5" fill="#b34432"></path>
        </g>
    </g>
</svg>